<mxfile host="Electron" modified="2024-09-26T00:57:11.935Z" agent="Mozilla/5.0 (Windows NT 10.0; Win64; x64) AppleWebKit/537.36 (KHTML, like Gecko) draw.io/24.6.1 Chrome/124.0.6367.207 Electron/30.0.6 Safari/537.36" etag="HJrorDLZouiulb-BCrkC" version="24.6.1" type="device" pages="2">
  <diagram name="Grantt" id="RKLOkigICogyW33OpGy6">
    <mxGraphModel dx="1434" dy="844" grid="1" gridSize="10" guides="1" tooltips="1" connect="1" arrows="1" fold="1" page="1" pageScale="1" pageWidth="1169" pageHeight="827" math="0" shadow="0">
      <root>
        <mxCell id="0" />
        <mxCell id="1" parent="0" />
        <mxCell id="gAyMT_CePvwM3im9MJJb-74" value="24" style="strokeWidth=1;fontStyle=0;html=1;container=0;align=right;" vertex="1" parent="1">
          <mxGeometry x="980" y="540" width="70" height="20" as="geometry" />
        </mxCell>
        <mxCell id="gAyMT_CePvwM3im9MJJb-61" value="" style="align=left;strokeColor=#CCCCCC;html=1;container=0;" vertex="1" parent="1">
          <mxGeometry x="210" y="640" width="1190" height="20" as="geometry" />
        </mxCell>
        <mxCell id="gAyMT_CePvwM3im9MJJb-62" value="" style="align=left;strokeColor=#CCCCCC;html=1;container=0;" vertex="1" parent="1">
          <mxGeometry x="210" y="660" width="1190" height="20" as="geometry" />
        </mxCell>
        <mxCell id="gAyMT_CePvwM3im9MJJb-75" value="26" style="strokeWidth=1;fontStyle=0;html=1;container=0;align=right;" vertex="1" parent="1">
          <mxGeometry x="1050" y="540" width="70" height="20" as="geometry" />
        </mxCell>
        <mxCell id="gAyMT_CePvwM3im9MJJb-76" value="28" style="strokeWidth=1;fontStyle=0;html=1;container=0;align=right;" vertex="1" parent="1">
          <mxGeometry x="1120" y="540" width="70" height="20" as="geometry" />
        </mxCell>
        <mxCell id="gAyMT_CePvwM3im9MJJb-77" value="30" style="strokeWidth=1;fontStyle=0;html=1;container=0;align=right;" vertex="1" parent="1">
          <mxGeometry x="1190" y="540" width="70" height="20" as="geometry" />
        </mxCell>
        <mxCell id="gAyMT_CePvwM3im9MJJb-78" value="32" style="strokeWidth=1;fontStyle=0;html=1;container=0;align=right;" vertex="1" parent="1">
          <mxGeometry x="1260" y="540" width="70" height="20" as="geometry" />
        </mxCell>
        <mxCell id="gAyMT_CePvwM3im9MJJb-79" value="34" style="strokeWidth=1;fontStyle=0;html=1;container=0;align=right;" vertex="1" parent="1">
          <mxGeometry x="1330" y="540" width="70" height="20" as="geometry" />
        </mxCell>
        <mxCell id="gAyMT_CePvwM3im9MJJb-90" value="" style="align=left;strokeColor=#CCCCCC;html=1;container=0;" vertex="1" parent="1">
          <mxGeometry x="210" y="560" width="1190" height="20" as="geometry" />
        </mxCell>
        <mxCell id="gAyMT_CePvwM3im9MJJb-89" value="" style="align=left;strokeColor=#CCCCCC;html=1;container=0;" vertex="1" parent="1">
          <mxGeometry x="210" y="580" width="1190" height="20" as="geometry" />
        </mxCell>
        <mxCell id="gAyMT_CePvwM3im9MJJb-40" value="" style="shape=image;verticalLabelPosition=bottom;labelBackgroundColor=default;verticalAlign=top;aspect=fixed;imageAspect=0;image=data:image/png,iVBORw0KGgoAAAANSUhEUgAAArIAAAH5CAYAAAB9Dt2yAAAAAXNSR0IArs4c6QAAAARnQU1BAACxjwv8YQUAAAAJcEhZcwAADsMAAA7DAcdvqGQAAECqSURBVHhe7d1/aFZXnsfxk/xvbZLuPzK4xegfMgW7Y7TQNUILNqkWVsFpYtspy1qqSUthdgftqt2BndExUloYpsZ0lClMa7TjUBdqakZQqKFsx3QaGYsDGulK6T9jTK1/J9nnc59zHs9zc588T2Ly5J6b9wuuOffX88t77vnec885t2Yix3iOHj1qXnrpJTsHAAAApFOt/QsAAAAEhUAWAAAAQSKQBQAAQJBqfvvb3xa1kRXayAIAACDtJnX2ktraWpOwGAAAAJg38fi0ZCA7NjZmampq7BIgPDp+x8fHOY4BVETnCipxgPRKyqO0kQUAAECQCGQBAAAQJAJZAAAABIlAFgAAAEEikAUAAECQCGQBAAAQJAJZAAAABIlAFgAAAEEikAUAAECQCGQBAAAQJAJZAAAABIlAFgAAAEEikAUAAECQCGTv040bN8zy5ctNTU1N9Hd4eNiumZn462m+Un19fdF+bt+JiQm7Zu7s3bu38J6dnZ12KTAzra2t0bFUX18fHc/3a6avp3ynfdy+Q0NDds3c2bdvH3kJSKFDhw4V8mZXV5ddOjV/nzVr1lSlPF6ogg5kdXC4A8UdLNV26tSpQvCqv5q/H/fzeleuXLGp/L7V8MUXX9hUvvBHmJLyUrVPvAMDA6a/vz9Kj46Oml//+tdReqbu5/W+/fbbaB/R37t370bpuUReQlr4F3JJk84P7e3t5sSJE3aPbNu9e7dNGfP666+XPTfq3OP2qaurM7/97W+j3w1zI9hAVrUrg4ODdi5P85cvX7ZzACpBXgLg8y/kkuj8cPLkSbNt27bo7p8CN+SNjIyYf/3Xf43SCmLPnz9vHn300WgecyPYQPbjjz+2qWIffvihTd0/FeQNDQ3RlZSuTpMK9q1bt5rGxsYorb+avx+z/XpAOaXy0h/+8IdZq5VV3il3q37dunWmpaUlSqsAeO2116L0TM326wGYTHf/mpubM1076zcnOHjw4JS1q8eOHYt+E4LY6gk2kPUzTVtbm02Z6Cpxtuh2Yrnbi8uWLTPXr1+PCnz9dUHoTMVfT/PAXEpLXpKzZ89Gx/7t27fNxo0b7dKZm+3XAxaiTz/9NMpHmm7dumXOnDljmpqa7No8tevOapOYXbt2Fb6/38wgidtW5xyC2OoIMpDVrVBXKCozvfLKK4UrJF0JcUsUqEw8L7366qtRWshLAOJ0l1IXhZcuXTIdHR12af4C9c0334yCOKCaggxk/VuhL730UnRbQ9X4TrnmBbpq1NWjGx1Akxqvq5eh2rdovZbpdf1MqXm3vavFKnXLVA3h3balOqHpNWprawv7Svz1kgIJBR9+5xyltawctWPSKAP+vm5/Ldd3L0W/jf976fsR5IQvnpd0O97PS+WaF0wnL/nWr19f2N6vEfZfxy1XOzy3TK+dRNu6bZRv3GdOej2fjmE/r2p7ffZy9L20nRsVwd9fv8dUeSMpL1U6KoLysLZ35whN+k16enrsFpPpe/vfUftqvpJzBjCVX/ziF0Xni3ge84/TpONt7dq1hfXxY9jtq7wiyjdumT+qx/3kxXLnL0fbuPVKJ50Tk/KmXlfLSrUhjn9H9xr+/vosKCP3HzJJ7gecGB8ft3PpcuvWLR1BhWl4eDhanju4CstyGStalqS3tzf6fv5r+FPuCnPi4sWLiev8qaurK3q9+LaffvpptHzPnj1Fy3MFVbTcl8t4hfVNTU3Rsvjrad6nz+ev9yd9b3/e/z/U9/bXJU3aX7+vT/P6bEnba/Lfs6Wlxe6VDvpMaT2O06BUXvKPMf3/lvoNyx1T081LkrQ8d5FVtDwpL+nYc+t1vLrP7O/nv49MdS6I5yWXr0W/k7+u1OTvI/ebl+LnlPik147nX/+8mDShGL9JXqlyLUn8uPzyyy/tmqnzn/j5L77e3zde7rn8UWlejJejUsn5y/HPL0r750Tluba2tqJ9kyb/9Rx//VT5W6+PPP0eccHVyJ47d86m8p2hXBvSTZs2RVcwolscSVd/ujJ77rnnEq+mHF2hrVy50s6VtnTpUptK9uyzz9pUnhsGyNHVnr9MtWHl6Gqtu7vbzk3mbhEnuXnzpk2Vpv3feustO5enhuvxHu2+qd4T6VYqLz3zzDPRX5kqL6mmdCqzlZd+/OMfF/K2lMtL27dvL9o+ifZRk6RS54Kpjmv16K7Ev//7vxe9/v3kJdVWHThwwM4l02u/8cYbdi7/fzTV+QKYDf/8z/9sU3lzMVRdqeO40rz405/+1KbyKj1/VUJlZiX9CfQdku4KOVPlb71+qVpdBNi04PTp0zZV3DEl3pEjqSf2r371q6KC5ciRI9G8JjVez11pmdWrV0dtgLQsdxVXVCBq3m2v6v+prFq1qqjjl27R+vwgQjZs2GBTpb3zzjs2lec+v9oy5q7m7NJkixcvjj5P7qo3uo3pvof29W/X+mNZinpoOnV1dYVG/3oN/V4IV6V5SXkjTnnJp5O0O6ZK5SWfO440zUde0vjMfuDY0dERdWLRpHylY72URYsWReu1j39O0L5a5sSD1nhecvsqL+m26FT+8z//06bybZnd7xd/T/0/uAJYwb22Ee2jbd0+vb29Rb8pMFMPPPCATc0tnaP+/ve/R8evyjGZaV6s9PxVjvKaH4Aqn7nPoc+gc4kfQ+ihJ1PRd3Sdvd13dD777DObwiS5H2yS3A+fyluyuQNDZ+XCFL/FmCsQC+tyB7ddeo+/b+4gt0tLyx2QRbc+NB+nZf7r+rdg4rcK3K1b8T+rbgk68dfz39P/LEm3GuLvV+n/oW7puH1yhZtdOvmz5DK7XXOPPrtbr1suaaLPlMbjOA3K5SUdX25dJXmp3O88VT7x+dv4txrjzQv8vOR/Vh2P/mfx9/FfT8eqW570/XKFWdG+pT5vXPx75gqlxOW5Ai5a7stdUBbW+3mpkt9O38Gt1y1TiTed0Hvq/x2l6XdC5flVptrWX+7nP8c/PuPr/X3j+boS+lz+6/vnDP+1Kzl/+ecLpd32ftmpyX8PZ6pzl79c57H451B57NanrXydL/ot4oKqkY3fClVNje9f/uVfbGryLdF4tbyaIsw13eL0+Z/fvxVRSbOC+G2OzZs329Q9qnWdil5DtyhV++M3SPeHE8llMpsy5ptvvrGpvKSaLtW4ITzl8pKOLx0bUi4vqSmC23au/Nu//VvRe5TKS5U0KxDVejhJNcLlapnUNMF1ovI7isQ7tblbn/eTl+I1MZpXBxB/Un52XDMivYdqq5ydO3eaFStWRJ1VuE2J2RI/tudCvHmRb6q8mItx7Fb38uJsnr80Tqyj2tik4TJdJzSnVHOIH/3oR5M+h+sEhqkFFcj6t0IVcLkD1k3xNi+lBnqXatwO0UGtg9v56KOPor/xNoeV3AqNH/w/+MEPbKoyahOkz6LCTLccp2qP58Tb1TKmbXb8z//8j02Vzkt+IZClvCT+Bds//uM/2lRlVHCqcNJvpCDaf61SZjMv6RGZuvj0p6TPoMBYBa1fGCrf6zaqCnkFtMD9+utf/2pTeUuWLLGpuTeTvBg3W+cvKnXmTzCBrGoT/ZqXSugqTQd6ku+//96m5pZf26oAUp9HQYELEtQmppJCTW2BfF999ZVNVeaJJ54oBK+qgevq6ipMLSXausZreBUMI3yh5iX/Doefl5xK85L4NZVffvmlTVVGY+26Nnd6HbVPd3nJb5fnq2ZeeuSRR2wq37742rVrUZtY/T4+BbQM7YP7oTyo48hR2VLNCg912JxuXoybrfNXqfMj5l4wgWy8Q0clFLi5/eK9p5M6sMyFeA2RPo/fc9FvDjGV+K3fpILwzp07NlVMt1L8Gtj33nsvevqIm5588km7ptgPf/hDm8q7evWqTd1D5g3PbOcl/8JsLpXLS35ziHI0fqUT7wgiUxVu/kWAakf3799fyEsaFSXJ/eQlPzAVdXjR711qSnqCmW676rdSjZWCDce/NQpMl0bJ8MuWl19+uWQejJdPs1F2lMuLSZ9lNs9ffocwnUfiTQDFPV3QqWQkF0xPMIHs0aNHbSpf8+KfuP0pfmvBNUdQtb9/AtdVpD8AswJD3WpLai/nfPLJJ9FfHayVZsL4LVG9h5/xK70VKv7r+J9fn0evW254Hse1udN3UOGmq9ck8Qynq9+Ltve5fi+NdpAUBCDdNAyU8oqUy0t+QTCbecmd3OcrL/kFkL6nXkufQ5O+S6Vt6P/yl78UPr+aOcSH+XHieUnv59rq6fdSYK0nJSV57LHHbCrv6aefLnqAgt5f763X9JsRuPbwfm26aob93xCYLne86djya2NVIxrvF+Lf+dC27pjXXx3XOgfMlqS8mPT6s3H+cuJDj+l8qv1Fn0Wv65fLuvtJE4Q5kPuPniRXeE27h+BcyhU0OhoLk+uVW0ruRF20veupG+/FmzTFewaW2j4X/EXrK+ndqd7C/jZuyh30k37n+Otp3tHn99eVm9xrx3uol5t86tGZtE3SlLZelfpMaTqO00B5yT+my+Ulvye9Jj8v+cuTpvjxkLSNJpeXpNRyZ6q8lMTfxn+9+O9QbvLzdfw3mWry97ufvBQfkWSqydH3TVrvT0m/8UKm3wSTy6FKJr+scqZzzMePxanWOfGyfqppumWpnweV9pf75cp0PkN8dBh/XdJ3jL8vkvNoEDWy8Vuh/m3BJPFRANz+usIq127mwQcftKk8tblJUm6EAF+pmiI1K8gVpnauvHKfX581d7DbuXt0BZjLJHZuMv+qOU6PICxVg6P9cicEO4cQTDcvxUcBSGteShrFYyqq3T1+/HjJ/Kd8VOrzxh8aElcqP5XLS/o8pejhCkl5O86vadLvOtX5RZ8lXoMGTJeOOd0h0OOt4372s5+VzA9arhrM+/H222/bVLJS7z2T81cpulvs57skLn/HmwhiltiAtohqKtJUk6XaFn1UTZVclai2JXfgFPaJX+lojEi9pr+NrqpU65E0zqL2zx2ohW21r95DdIXlXkd//cfz+fzvoEmv9/e//92uvSf+evErOEn6PO5q072P9o3/H+p76/dz++k1dMWsz1FfXx8t0+8Qp99E2/mfS/PuN3DL9d5pos9EjWyx3Ak8+l00VZqX3LGhaS7zkvjrStUWu2PcTdon6b2k3Ovp8+vzum2Udtv5tb/xfK186X9v/dW8W+6WuXFknfvNS/ps/vu619D/ZXycWKW1zM/zmty2mEy/DyaXofFJx5COW+Wfcvw8oUl5UucBHZ/aX/GGlsePyUrOBVIqLyrPuvfVMv8841R6/tJ3deuVjpcrpfKae62k95Zy39H/3fS+SM6jNfont6JIbW2tGRsbm1ZtIZA2On5zJxyOYwAV0bkioUgEkBJJeTSocWQBAAAAh0AWAAAAQSKQBQAAQJAIZAEAABAkAlkAAAAEiUAWAAAAQSKQBQAAQJAIZAEAABAkAlkAAAAEiUAWAAAAQSKQBQAAQJAIZAEAABAkAlkAAAAEiUAWAAAAQSKQBQAAQJAIZAEAABAkAlkAC1pfX5+pqamJpuXLl9ulAIAQEMgCWNCuXLliU8YMDw/bFAAgBASyAAAACBKBLACkyOXLl019fX3U1EF/NQ8ASEYgCwApcvfuXTM6Ohql9VfzAIBkBLIAAAAIEoEskHHuNvWaNWvMxMREdKu6vb29sFw99Q8dOmRGRkbsHvc0NDQU9ebXdm6/zs7OaJmj/bVe76P1mrSttpvq9njSfno/7Xfjxg271T1apnXaxt9+7969id/B0egE/nsofebMGbt2atN9z56eHlNbWxttd+LEicJ39PfX/4H/u+g9tLy5udkuydO826e3t9cuvUev39raWthGk15b3zeJPos+X9LvTTMGAMHJFWyT5E5sE+Pj43YOCJMOb47j/O/gpuPHj0f521/mpqampolbt27ZvfL8bTs6Ooq2b2lpsVtNTAwNDU3kgqGi9fEpF4TZre/RfnV1dYnba2psbCz6P9RrTLW91n355Zd263vin92f4q8Xp/fMBeRF2/iT9tf38HV1dRXWt7W1Rd/D38ef3Oe9ePFi4np/OnjwYLSt6P9K/wdJ27lJ39v//bSP/p+TttWk11vIeUa/AYD0SsqjBLLILB3wHMfFgWy5SQGYr1TQq8kFsgqOygWxbhoeHo72kUr3c/+HChaT1senePBbSYDoT77pvKfPD2TLTS541O+RtN6fdCHiKEBO2iY++fscOXIkcRs3EcgSyAJplpRHaVoALDC5AMhcv35dZwOTC2zs0ryDBw/aVDLtmwu4oikXrEXLTp06VTT+qpZrvV4/F0Sauro6u8aYN998M1ou8f06OjoK++UCyGi+qanJri3+bHpN3WbXtvHvodfU7XbnN7/5jU3laVvto+327Nljlyb71a9+ZVP598wFhRW9Z5z/ebVtLvC1a4zp7++P/qoZh9brN/Np3r3ntm3bomVqAnDy5MkoLfp/0eu61/d/tzfeeCNaLh999FH0V/T7utfVPvp/e/DBB+1aAAhE7iQ2CTWyyAId3hzH+d/BTarFi/8m8dvu/m1yv0ZWt6ST+Le3XS2tz68F9GtLW1tbi5aX43+WeM2x+DWU+k6OW6ZJ28Tt3bu3aBufv9y/re+Ues94jWy86YGaK/jrP/30U7tmcg2y5uP811fTBtXm+vR+/u+Vu3CJlvv/19rvzJkz0XLk6XcBkF5JeZQaWWAB+ad/+qeoc49v/fr1NpVXarinH//4xzZVzNUoOurU5E9+ByLV/Dn+fqpRnMrAwIBN5X399deT3ue7776za/Mdp/y/zubNm23qngceeMCmisXf8//+7/8qes8kq1atsqm8H/zgBzY1MxcuXLCpfGe+Y8eOFX0u/ba587vdwphvv/02+vvcc89Ff0VDe23atKnQaW2qzw8AqZWPZ4tRI4ss0OHNcVy+VnGqGsBytaDi71vJ5P5PKnltR5/J377c5GqGp1u7qcmJ71tu8mujS72mE3/t6dbI+rXZlUz+60/VYc5vT7sQ6TcAkF5JeZQaWWCB++abb2xq7vltN3137tyxqdmxevXq6O+iRYuiv85XX31lU7PPvWfaqH3ukiVL7JyJhua6du1a1MY3/v+hGttc4GznACD9CGSBBeTLL7/U5aydy3vvvfdsKs8PeirhB0PqPKXXLzVdunSp0LTB38/vuJRk5cqVNpWn8V+TXt9N+/fvj7aL39JPGif1+++/t6li8ff8+OOPE9/LTe49q8EPmvU7Jn0eN92+fbuoc5moY9mOHTui/4944PrZZ5/ZFACkH4EssIAoYFTPd9dWVQPj+21VFfAsW7bMzlXmqaeesiljDhw4EL2m/5AABY9apraYfs9+Dcjv6PNoQH63n9prqq2n9lEwpsDLD3xfeOGFSQP+q02r2nqqzajfFtffr7u7O/osovfQe5YKQOPv+ZOf/GTSAxT895yrNqaffPJJ9Fev736fxx9/PPorg4OD0ffw319p96AErdNvKKqN1bz/2+nCJR7oAkAwcie4SWgjiyzQ4c1xnP8dKp3UftJXSTvWXNA45QMD/Ml/De1XSbtX93+oHvZJ65OmeJvQpG1KTb7pvKfflvV+2siKv86f/DbOuSA7cZv45I8N648wUWqKf5aFRN8fQHol5VFqZIEFxK9hjNO4oqqxmy7V4L7zzjtRrWQ5S5cutan8fhqXdSpq3+ls3Lix7LivTrxNqL5bKXrNXIBn54rN9D3vV6n3XLx4sU0Zc/To0YpqUv0a9nLjxOp3WrdunZ0DgADYgLYINbLIAh3eHMfFtXuq0VNtoF8zp5q9eE2s4z95q9Q2jmpYcwHYpJpCzWv8Ur/G0qcxT7VeY8m6fZTWsvj4q6LXiW+vSd9J76/PkUS1pP4+GgPWfSY3Hqx68yeZ7nvqt3K1zdonTt/LvYbeM+mxukmf140H62j8WI3TG69p1X7aPv5/lvR/pPfXtowpS40skHZJebRG/+RWFKmtrTVjY2OTxpsEQqLjNxfILvjj2P/+ejrW7t277RwAn/JKQpEIICWS8ihNCwAAABAkAlkAAAAEiUAWAAAAQSKQBTKu0evZ/sgjj9gUAADho7MXMkvHL529AFSKzl5AutHZCwAAAJlBIAsAAIAgEcgCAAAgSASyAAAACFLJzl40eAcAAECaxONTRi1AZjFqAYDpYNQCIN0YtQAAAACZQSALAACAIBHIAgAAIEgEsgAAAAgSgSwAAACCRCALAACAIBHIAgAAIEgEsgAAAAgSgSwAAACCRCALAACAIBHIAgAAIEgEsgAAAAgSgSwAAACCRCALAACAIBHIzoM1a9aYmpqawqR5AAAwMyMjI+bEiROmvb3dLF++vKiMbW1tjdYhm2omcmy6oLa21oyNjUUHAGZXX1+f2bRpk527Z2hoyKxatcrOYTbo+B0fH+c4BlARnSsSikQEQMFqf3+/nUvW0dFhDh8+bOcQoqQ8So1slX388cc2VezDDz+0KQAAMB3lgljp7u6mZjaDCGSrzM9EbW1tNmXMyZMnbQoAAExHY2NjVON65swZc+vWrajWbnh4eFLTvU8//dSmkBUEslWkZgWjo6NRuqmpybzyyiuF297KcJcvX47SAACgctevX4+aDWzcuNE0NDREy5YtW2beeuutKO3cuHHDppAVBLJV5Dcr2L59u2lubjZ1dXV2Cc0LAACYTd9//71N5T355JM2hawgkK0S9ahU+xxnw4YN0V/1sHT89QAAYGbcKAY/+clP7BITVRxt3brVziErCGSr5Ny5czaVb8ujWx7ij2CgZgdqfgAAAKanp6cnaq6n6aGHHjLbtm0zt2/fjtap3L1w4UKh7EV2EMhWyenTp22quJOX2vP4So1qAAAASrtz545NFVNNrMrdRYsW2SXIEgLZKtAtDn9UgmeffbbQyUv8wJahQQAAmL7FixfbVDHd7Txw4EBUK0sZmz0EslUQb1YQf/DB5s2bbYrmBcBs0MWju8UYn1y79H379iWu18QIIkB4duzYEQ275SYNxaURgnydnZ3R+QHZQSBbBX6zAg2zFS801Y7HR/MC4P5cvXrVpib77rvvor9ffPFF9DfJ3bt3bQpAqNR07+zZs0WjA6my6NSpU3YOWUAgO8c0Zt10H3agWx9cMQIzt3LlSpuazHX2WL16dfQ3yZIlS2wKQMg0puzatWvtXF6ptrQIE4HsHPObFVRKV4wz2Q9Angov/xajP7lnrf/yl79MXK+Jns1AduhhCb5SbWkRJgLZOXb06FGbynfqSio0NanJgc9vjgAAAJINDAyY5cuXR8Nv+e3blVab+Hj56sZxRzbU5IKoCZsuqK2tNWNjY1H7TcycmhWoc5fT29tb9ACEOD0TenBw0M6Z6HnR7lF7mD4dv+Pj4xzHACqic0VCkYiUUyCrJ2VWYs+ePWb//v12DqFJyqPUyM6hePOAeDuduJdeesmm8mheAADA1Cpt097R0UEQm0EEsnNITxFxWlpayra70+0Ov3flzZs3bQoAACRR2armA6ptVVnr0/BbCmAvXrxYaB+PbKFpATKLpgUApoOmBUC60bQAAAAAmUEgCwAAgCARyAIAACBIBLIAAAAIEoEsAAAAgkQgCwAAgCARyAIAACBIBLIAAAAIEoEsAAAAglTyyV483QQAAABpEo9PeUQtMotH1AKYDh5RC6Qbj6gFAABAZhDIAgAAIEgEsgAAAAgSgSwAAACCRCALAACAIBHIAgAAIEgEsgAAAAgSgSwAAACCRCALAACAIBHIAgAAIEgEsgAAAAgSgSwAAACCRCALAACAIBHIAgAAIEgEslXQ19dnampqEqf6+nrT2tpqenp6zMjIiN0DwFxIyotnzpyxawGEQuVlZ2dnIR+rLK1E0n4TExN2LUJEIFsFV65csanJRkdHTX9/v9m5c2cU0BLMAnPn5z//uU3d8/vf/96mAIRAF6QrVqww3d3ddkm+LC1npvsh3QhkU2RwcNC88cYbdg7AbLpx40aUx+JOnjzJBSQQAOXTp59+2mzatGlaAaj2U0XRdPdDGAhk54FuY7ipt7fX1NXV2TWm6EoRwOw5d+6cTRnT1tZmU3n+OgDpdOzYMXP27Nko3dHRYZqamqJ0OdpPdz5lOvshDASy86y9vT2aAMyto0eP2pQxL774omlpabFzxpw+fdqmAKSZKn4+/vhjc/jwYdPQ0GCXlqf91B5+uvsh/QhkU8avnQUwO/xmBcpjGzduNFu2bIk6ewjNC4D02759u7l27VrURGA63H7K98geAtl5ptEK/OYEr7/+uk0BmC26tei4OyAbNmyI/jqnTp2yKQBppJrUmdSmznQ/hIFAdh64YT80abQCUS1RV1eX2bVrVzQPYPaoxtVZv3599HfZsmVFbeX8pgcAgDAQyKaEelKeP3/eXL582S4BMBuUp4aHh+1ccU3s1q1bbSo/aoiaIAAAwkEgmyLqVfnEE08QzAKz6MMPP7Sp/GgF/i1Gdfhy7WSF0QsAICwEsvPAH35LNUV79uyxa/I1s7t377ZzAO6X36xg8+bNNpW3atUq09jYaOdoXgAAoSGQnWdqp7d///6ioYDceHcA7k+8WcG2bduK2qhrun79ul1L8wIACA2BbEo8+eSTNgVgtmhUkOli9AIACAeBbEp8/fXXNgVgtpw4ccKmKvfuu+/aFAAg7Qhk55kGYT906FDRWLJ+MwMAM9PX11f0XPWhoaGi9un+pMdWOmqKQIdLAAgDgew88NvnPfTQQ5M6d+3bt8+mAMyUHmPpqEOXOnaV8swzz9hUnj/SAYB00B2W2traQvkZ70/il629vb12aX4/f118P/81Z3IXB/OLQDZF9FAEZb5169bZJQBmyi+QnnrqKZtKpkdX+o+H9kc6AJAON2/ejO6gVELbOn66nOlsi3QgkK2CRx55xKaSqSmBnuqlHtPu8ZkAZk5NA/xmBc8995xNlRZvXgAgXVSWqta0En65W64M9k1nW6RDTe7qZtLljarZx8bGKj5ggDTS8Ts+Ps5xDKAiOldUWuMHoPqS8ig1sgAAAAgSgSwAAACCRCALAACAIBHIAgAAIEgEsgAAAAgSgSwAAACCRCALAACAIBHIAgAAIEgEsgAAAAgSgSwAAACCVPIRtTymDwAAAGkSj09LBrJjY2M8ox5B0/E7Pj7OcQygIknPcQeQHkl5lKYFAAAACBKBLAAAAIJEIAsAAIAgEcgCAAAgSASyAAAACBKBLAAAAIJEIAsAAIAgEcgCAAAgSASyAAAACBKBLAAAAIJEIAsAAIAgEcgCAAAgSASyAAAACBKBLAAAAIJEIDsPLl++bDo7O82aNWtMTU1NNC1fvjxaduPGDbsVgNnW19dXyHNuOnPmjF0LIHQnTpwwra2tRXmc8jXbaiZybLqgtrbWjI2NRQcAZs/IyIh56623zIEDB+ySZL29vaa9vd3OYaZ0/I6Pj3Mco0AXj4ODg3Yur62tLSr8AJ0rEopEBEDlqwLYeP6Oo3wNW1IeJZCtImWy/v5+O1daXV2duX37tp3DTBHIwqfamMbGRjtX7NatW6ahocHOYaEikA2Xaly7u7vtXGmUr2FLyqM0LaiSQ4cOFQWxykzHjx+PClD9pwwPD5uurq5o3ejoaPQXwOw5d+6cTeVrYX3+OgBhUW2sH8Q2NTWZ69evF8rWlpYWuyZfvg4MDNg5ZAGBbBUokx08eNDO5Z0/f95s27atUAu0bNkys2vXLjM0NFSy1gjAzB09etSmjHnxxReLCrfTp0/bFIDQXL161aby3n777UI5qrJ13759URrZRCBbBart8WtZ9+zZY1atWmXnimm5riQBzB41K3Bt53Q3ZOPGjWbLli2FZicnT56MLjgBhGfJkiU2lffNN9/YVN73339vU3nx7RE2AtkqiNf2PPvss7TbBKro2LFjNmUKHT02bNgQ/XVOnTplUwBColpX/w6L2sseOXIkSmuUoBdeeCFKiyqStD2yg85eVRDvKZ3wk2MO6PilsxdEw++orZz4vZbXrl1rLl26FKXVrs6lsTDpXMH5OUwKWJ944omiu59qXuDyvXR0dJjDhw/bOYQoKY9SI1sF5YYDATB3VMD5hZlfE7t161abyudTxpkEwqRmecrDfs2sn++1nCA2mwhkAWTahx9+aFP50Qr8YbZUuPk19oxeAITrb3/7W8k+Jho1SENg0hY+ewhkq0CdSwDMD3XkcjZv3mxTearF8UcJ8Uc2ABAOPdRk06ZNhVpYXbTqqX1+DS3BbDYRyFaB2uH5uH0JVEe8WYGGvFMNrD/5NTg0LwDCozyrvO2oo5cCW41Ocvbs2aiDl6M87nf+RPgIZKtg9erVNpVH72igOnp6emyqcuRPICx+YKo7LDt27LBzefv37y+686Jx3JEdBLJVoOG2fHo4gh58AGBuqVZmut59912bAhCCL774wqawEBHIVoHa4fntdDQ8yJNPPhkNA+S31dFj8/bu3Wvq6+vtEgAz1dfXVzQUjy4eNWxL0qRheRw1RVCTBABh8O96Kv+qHHVlq/5q3m9ixDiy2cI4slWiNjwap9IvWKeS8N+CadLxyziyC5cGRXfPX9dtxamemKegVx1FHLWp0+1ILCw6V3DuDY8qgZqbm+1ceRcvXjTr1q2zcwhJUh6lRrZKdAV44cKFonY6AOaO36zgqaeesqlk6hTijy7ij3QAIN0UlPoduqaiO6EEsdlCIFtFamKgWiFlJA0NEh+WS80PlBlpPwvcHzUN8O9+PPfcczZVWrx5AYBw6A6KalqVj+MVRrobqrJV+do91Q/ZQdMCZBZNCwBMB00LgHSjaQEAAAAyg0AWAAAAQSKQBQAAQJAIZAEAABAkAlkAAAAEiUAWAAAAQSKQBQAAQJAIZAEAABAkAlkAAAAEqeSTvXi6CQAAANIkHp/yiFpkFo+oBTAdPKIWSDceUQsAAIDMIJAFAABAkAhkAQAAECQCWQAAAASJQBYAAABBIpAFAABAkAhkAQAAECQCWQAAAASJQBYAAABBIpAFAABAkAhkAQAAECQCWQAAAASJQBYAAABBIpAFAABAkAhk51hfX5+pqakpObW2tprOzk4zMDBg9wAwV5Ly45kzZ+xaAKEYGRmJyk6Xj+vr6+2ayXp6eoryfKlpaGjI7oGQEMjOsStXrthUsv7+ftPd3W2am5ujoPbGjRt2DYDZ9vOf/9ym7vn9739vUwBCoAvSFStWRGWnMzo6alOT3blzx6amdvfuXZtCSAhkU0RBbVNTk7l8+bJdAmC26CJxcHDQzt1z8uTJqHYHQLopnz799NNm06ZNUwauM7Vo0SKbQkgIZKtsYmKiMA0PD5ve3l5TV1dn1+avKl966SU7B2C2nDt3zqaMaWtrs6k8fx2AdDp27Jg5e/ZslO7o6IgqfqarpaWlqBz2p0cffdRuhZAQyM6jZcuWmfb2dnPt2rWiDKlaoxMnTtg5ALPh6NGjNmXMiy++GBVozunTp20KQJqp4ufjjz82hw8fNg0NDXYpFjIC2RRQZnz77bftXB4FKzB7/GYFKgg3btxotmzZEnXwEJoXAOm3ffv2qOJHTQsAh0A2JdatW1dUK/unP/3JpgDcL92SdHQXRDZs2BD9dU6dOmVTANJIlT73Wwurvij+SAXqZK1RDbiQDReBbIo89dRTNjV1D0wA06MaV2f9+vXRXzXt8S8e/aYHABYGBbY7d+6MAtpbt27ZpQgJgWyKLF682KYAzBaNAqKOlY5fE7t161abyrdNZ/g7YGFS/n/hhRfsHEJCIAsg0z788EObyo9W4N+aVIcv105WGL0AyJ5du3aZixcvRjWuboQCPfxgz549dos81c4y/GV4CGRT5Ouvv7YpALPFb1awefNmm8pbtWqVaWxstHM0LwCySv1Q/ItY5f39+/dHw3j5rl69alMIBYFsily6dMmmTFHhCmBm4s0Ktm3bVtTRQ9P169ftWpoXAAvNww8/bFN5N2/etCmEgkA2JQYGBgrDA4nf8QvAzKg38nQxegGwcC1dutSmEAoC2RTQsB8//elP7Vzec889Z1MAZmomDxZ59913bQpA1p0/f96m8lauXGlTCAWB7DzSLUwVtI899lhRbaw6oKg9D4CZ6+vrKxrGTp07/MdR+pPfTk5NEejwAWSDytn6+npz6NChonyt5Z2dnVEHL0dN+tR2FmEhkK0yv22eMo3a7Plt+PTUoQ8++MDOAZgpPcbSKVdAPfPMMzaV5490ACAdVPFTW1tbKEP9IFT88rW3tzda9u2330YXtLt37zaPPvpoYb3OCd3d3dE2zu9+9zubQkgIZFNENbF6/N79PrkEQHGzgnJtzvXIWl1EOv5IBwDSQR2xdAelEq7T1pIlS6K/U1HeP378uGlubrZLEBIC2Tn2yCOP2NRkyjwKXjWWnW57nj17liAWmAW6heg3K6ikzXm8eQGAdFF5qtrUSriyV0/wU35WOavy1qf5rq6uqAJJd0cRpprc1c2kyxtV3Y+NjVV8wABppON3fHyc4xhARXSuqLTGD0D1JeVRamQBAAAQJAJZAAAABIlAFgAAAEEikAUAAECQCGQBAAAQJAJZAAAABIlAFgAAAEEikAUAAECQCGQBAAAQJAJZAAAABIlAFgAAAEGqmUh4sHRtbS3PmwYAAECqxOPTkoHs2NiYqampsUuA8Oj4HR8f5zgGUBGdK6jEAdIrKY/StAAAAABBIpAFAABAkAhkAQAAECQCWQAAAASJQBYAAABBIpAFAABAkAhkAQAAECQCWQAAAASJQBYAAABBIpAFAABAkAhkAQAAECQCWQAAAASJQBYAAABBIpAFAABAkAhkq2Tv3r2mpqam7HTo0CG7B4DZsGbNmsS8pknrOjs7zcDAgN0aQIh6enoS83h8unz5st0DWUEgWyVffPGFTQGopsHBQZuaTOu6u7tNc3OzOXHihF0KIDR37tyxqandvXvXppAVBLIps3jxYpsCUE3btm0zN27csHMAsmjRokU2hawgkJ0HLS0tZnx83ExMTEyaduzYYbcCMNu6uroKeW14eNi0tbXZNXmnTp2yKQChmqqMXbVqld0KWUEgC2BBWrZsmTlw4EDUbg4AECYCWQCwaNoDAGEhkAWwIKk9bHt7e3S7Uerq6szWrVujNIBw9ff3m9ra2sJIBa2trdGoBiMjI3YLZAmB7DyIZzI3aRggAHNn9+7dhfzW2NhoLl26FC1Xm7oLFy6YhoaGaB5AdqjM3blzZxTQEsxmD4FsitBjGpgff/7zn6PCDkB2abi9559/3s4hKwhkU0SdTwBU3+joaFRby10RIEy7du0yFy9eNLdu3SqMUDA0NGT27Nljt8jTBSsPRcgWAtl5UGpokMOHD9stAMwFf/gtTWfOnDHLly+3a030cASe8gWEad26dUXNgzTU1v79+01HR4ddknf16lWbQhYQyAJYsDZu3Gh+97vf2bm8zz77zKYAZMHDDz9sU3k3b960KWQBgSyABU21OAAWjqVLl9oUsoBAFsCCRidLINvOnz9vU3krV660KWQBgSyABUvtYTWWrO/xxx+3KQAh0MVofX29OXToUFFHLi1XB05/RBINu8djarOlZkI9HmI0xunY2Fg01iJmh8avq2R4HzVKp9PX7NDxq051HMcL23T+/9UR8+zZs3YOC42OlYQiESmnC9Lm5mY7NzWNbEBzonAl5VFqZFOG25zA/FAQ+8EHH9g5AKFYsmSJTZWmJ/f19vYSxGYQgWyVrF692qamxliywOxqamqyqcl0m7GtrS0ahks1sTzZCwiPys3h4eFozFhdkPo0r2H3rl27NqkZEbKBpgXILB2/NC0AUCmaFgDpRtMCAAAAZAaBLAAAAIJEIAsAAIAgEcgCAAAgSASyAAAACBKBLAAAAIJEIAsAAIAgEcgCAAAgSASyAAAACBKBLAAAAIJEIAsAAIAgEcgCAAAgSASyAAAACBKBLAAAAIJEIAsAAIAgEcgCAAAgSASyAAAACBKBLAAAAIJUM5Fj0wW1tbUmYTEAAAAwb+LxaclAdmxszNTU1NglQHh0/I6Pj3McA6iIzhVU4gDplZRHaVoAAACAIBHIAgAAIEgEsgAAAAgSgSwAAACCRCALAACAIBHIAgAAIEgEsgAAAAgSgSwAAACCRCALAACAIBHIAgAAIEgEsgAAAAgSgSwAAACCRCALAACAIBHIAgAAIEgEslVy48YNU19fb2pqaqacenp67B4Ayrl8+bLp7Ow0a9asKeSh5cuXR8uU5ypVLn/q9dvb282JEyfsHgDSSvlZ5wCdC1weVv5WHtY5A9lSM5Fj0wW1tbVmbGws+s/H7BgYGDDNzc12rrSuri6za9cuO4f7oeN3fHyc4ziDRkZGzFtvvWUOHDhglyTr7e2NCq9yKs2f0tjYaN577z2zbt06uwRZoXNFQpGIgBw6dMjs3r3bzk3W0tJizp49a+cQmqQ8So1syixevNimAJTy/PPPlw1iRbUys214eDgKeqmdBdJFdzSnCmKRTQSy8+TTTz+Nriri044dO+wWAJKoxqW/v9/OGVNXVxfVvN66dSvKQwo0dWdDRkdHo7/TdfHixUKe1OueOXPGNDU12bV5022+AGDuKC/u3LnTzuXPC8ePHy86L+g88dprr9ktkBUEsgCCoSYFBw8etHN5Fy5ciJoPNDQ0RPPLli2LmucMDQ1FzQDul15348aN5tKlS0U1vAqS33zzTTsHYD4dO3bMpvLOnz9vtm3bVnRe0HlCeRnZQiALIBjnzp0rqmXds2ePWbVqlZ0rpuXXr1+3c7Pjv//7v6NOIw7NC4B0OHnypE0Z09HRUfK8gOwhkAUQjNOnT9tU3rPPPmtT1aHaHRWSjoJqekED80t3atR0wFm/fj2dfBcQAlkAwfALK5mPWpfHH3/cpvLu3r1rUwDmw9WrV23qnvjwWxpCT+3rFfQiWwhk54m7YoxP1O4ApQ0ODtrU/HnggQdsCkAaqW1sd3d30YWvzh0a0aC1tdUuQVYQyKYMtTsAAMwNBbQ8eChbCGRTZtGiRTYFIE5D6sy3b775xqYApFFbW1s0ZJ4bQu/IkSN2Td5HH31kU8gCAtl5UmocWXpaAqWtXbvWpvLmYxzXK1eu2FTekiVLbApAGrz66qtFw2xpfHY90QvZRCALIBirV6+2qbxTp07ZVHWoo4ja3jkap1bjUwKYP/E7mV999ZVNYSEgkAUQjPhwW3o4QjU7SP7Xf/2XuX37tp0z5uWXX7YpAPMlfidT5wTd4fQxWkF2EcgCCIYKLP8WocZxfeKJJ6IHE/gF1cDAgNm7d2/Rwwu03g3Ho+V6DG0ltF9fX1/U2/nw4cN2ab697vbt2+0cgPmkdrGO7pq4Dl3KvxqKyx/xZMuWLTaFLKjJXbUUX7bk1NbWmrGxseiEj9mhgrW5udnO5dvI+vOYfTp+x8fHOY4zRu1im5qaip7wNRV3iovnQdXmajgeia+rhALhdevW2Tlkgc4VCUUiAlBpHlZzoM8//7zw6FqEJSmPUiMLIChqk3rhwoWoQLofS5cutanp0fsODQ0RxAIpovzoP3UvifLuH//4R4LYjCGQrRI1RndDB+kvw2wBM6cmBtevXze9vb3RLcX4sFxqfrBnz54o4CzFHwFBIw9MNbSXXk+FpIb00fsyugiQPmr6ozzqNzMQ5V8NwaWaWPJu9tC0AJlF0wL41E7OjTigoPSdd97h2ECRpNuWANIjKY8SyCKzdPwSyELU4WPFihVRu1rVvF67do3bi5iEQBZIt6Q8StMCAJl37NixQuew999/nyAWADKCQBZA5v3hD3+I/qrdrP/EHwBA2GhagMyiaQGA6aBpAZBuNC0AAABAZhDIAgAAIEgEsgAAAAgSgSwAAACCRCALAACAIJUctYCemwAAAEiTeHzK8FvILIbfAjAdDL8FpBvDbwEAACAzCGQBAAAQJAJZAAAABIlAFgAAAEEikAUAAECQCGQBAAAQJAJZAAAABIlAFgAAAEEikAUAAECQCGQBAAAQJAJZAAAABIlAFgAAAEEikAUAAECQCGQBAAAQJALZKrt8+bLZu3evaW1tNTU1NYVp+fLlprOz05w4ccJuCWC2KM/5+S1pqq+vt1sDCJXK0Hj5umbNGtPT02O3QNbUTOTYdEFtba0ZGxuLDgDMjpGREfPKK6+YkydP2iWlNTU1RdstW7bMLsFM6PgdHx/nOEZUsPX399u50hJOh1hAdK7gGAiTyljl88HBQbtkMpWtZ8+eNQ0NDXYJQpOUR6mRrQLVwq5YsaKiIFaUEU+dOmXnAFRDXV2dTQEIjSqKpgpiRevfeustO4esIJCtgpdeesmMjo7aOWMaGxvN8ePHzfDwcHRloWloaMjs2bOHwhSYYy0tLYV850+3b9+2WwAIyY0bN4oqilTzev369ShfX7x4MSpzne7u7qj2FtlBIDvHDh06VHSVqAz2+eefm23bthU1HVi1apXZv3+/uXbtmmlra7NLAQDAVM6dO2dTeQpqXfC6bt0688tf/jJKiyqVrl69aueQBQSyc+zdd9+1qfyty3Ltc7ROjdV37dpllwAAgFLu3LljU3nx/iVr1661qbzPPvvMppAFBLJzSG1j1XzA6ejooJE5AABzKN50gI7T2UYgO4fity+efvppmwIAALNh8eLFNpX3xhtvmFu3bkVptZ9VEz9kF4HsHLp586ZNJdNIBhpKImnq6+uzWwGYTRqGKynPtbe32y0AhGTDhg02lacOXf/wD/8Q5Wu1ld29e7ddgywikJ1HfrODuCtXrtgUgGr47rvvbApASNR0oKury85hoSGQnUf+kCAA5teDDz5oUwBCow7SZ86ciYbX82kUoN7eXjuHLCKQnUOPP/64TeV98sknNpWnobb8cSwBzL1S48jyeGggbBs3boxGBorn63jTg6VLl9oUsoBAdg6tXLnSpvI0th0DMQMAUD3xcWbjw3EhbASyc0hDbWnILUdtYtWbEgAAzD1VHu3bt8/O5R9KxHBc2UIgO8d+9rOfFT12Vr0p16xZE93u8GtnGaUAAICZUZmqScNtOSpXW1tbizpW/8d//IdNISsIZOeYrvzef/99O5enR9bqEbUPPfRQYeifTZs22bUAAGA63nvvvahcVSdqv1z1HxGv9vEMs5c9BLJVoAboQ0ND0xqlID7AMwAAmBmNXvDBBx/YOWQJgWyVrFq1yly/fj0aHkTtZtVOx6cgV1eLGgtPQe+OHTvsGgD3y28TR/s4IHtUdqps9SuMlFYAe/HixajZAY+Iz6aaCY1PEVNbW2vGxsaiqnkgVDp+x8fHOY4BVETnioQiEUBKJOVRamQBAAAQJAJZAAAABIlAFgAAAEEikAUAAECQCGQBAAAQJAJZAAAABIlAFgAAAEEikAUAAECQCGQBAAAQpJJP9uLpJgAAAEiTeHzKI2qRWTyiFsB08IhaIN14RC0AAAAyg0AWAAAAQSKQBQAAQJAIZAEAABAkAlkAAAAEiUAWAAAAQSKQBQAAQJAIZAEAABAkAlkAAAAEiUAWAAAAQSKQBQAAQJAIZAEAABAkAlkAAAAEiUAWAAAAQSKQnWMnTpwwNTU10bR8+XK7dLK+vr7CdvX19eby5ct2DYCZWrNmTSFfxSflx9bWVtPT02NGRkbsHgBCd+PGDdPZ2RnlcZffVa62t7dTtmYQgewcu3nzpk0ZMzw8bFOTXblyxaaMGR0dNXfv3rVzAGZqcHDQpiZTfuzv7zc7d+40K1asiAJaAGE7dOiQaWxsNN3d3UVlrsrVkydPmt27d9slyAoCWQALngo5BbSqxQEQJl2MEqguPASyABaErq4uMzExUZguXrxo2tra7No81eKomQ+AsKg5gS5Gnbq6OnP8+HFz69atKL+rdra3t9e89tprdgtkBYEsgAVp3bp1URt2FW4+CjogPMeOHbOpvPPnz5tt27aZhoaGaH7ZsmVRG9mNGzdG88gOAlkAC5oKt5aWFjuXbztLhxAgLGr/6nR0dJhVq1bZOWQdgSyABS9eC/u///u/NgUg7TTqiN+xa/369dFIBVgYCGSrzA0FEp9ooA7Mn8cee8ym8u7cuWNTANLu6tWrNnVPfPgtDcWnEQ0Yai97CGQBLHiuHR2A8KltbHz4LQ3FpwojjR2NbCGQBQAAC4ICWsaMzhYC2Srzh//xJw0NBGB+aOgeANmgYfXOnDlTKF+PHDli1+R99NFHNoUsIJAFsOD97W9/s6m8pUuX2hSA0Lz66qtFw2zt2LGjaGQSZAuBLIAF79e//rVN5a1du9amAKTdokWLbCrvq6++siksBASyABY0PRShv7/fzpmo5kaDpwMIQ3zMWI0DrSYFPkYryC4CWQAL0sDAQDREj3o4+/bt22dTAELhP25aIxa4Dl0KYJXP1cnL2bJli00hCwhkASwIGnrHH7u5ubk5KvB86nSpR9cCCIvaxfr0dC/l84ceeqgonzc2NpqtW7faOWQBgSyABa+urs709vaaXbt22SUAQqILUAWvU1EQ+8c//pFxozOGQHaO+b2flYlKeeSRR2wqX6jGG68DmL6mpiabmkzrdDtSAey1a9dMe3u7XQMgRIcPH46G3fKbGYjavWsIrs8//3xSe1qEr2Yi3iI6p7a21oyNjUXV8kCodPyOj49zHAOoiM4VCUUigJRIyqPUyAIAACBIBLIAAAAIEoEsAAAAgkQgCwAAgCARyAIAACBIBLIAAAAIEoEsAAAAgkQgCwAAgCARyAIAACBIJZ/sxdNNAAAAkCbx+JRH1CKzeEQtgOngEbVAuvGIWgAAAGQGgSwAAACCRCALAACAIBHIAgAAIEgEsgAAAAgSgSwAAACCRCALAACAIBHIAgAAIEgEsgAAAAgSgSwAAACCRCALAACAIBHIAgAAIEgEsgAAAAgSgSwAAACCRCA7Dy5fvmwaGhpMTU2Nqa+vj+YBzL7ly5dH+UzTiRMn7NLJ1qxZU9ius7PTLgWQZocOHYrKUJd3y5WlIyMjpqenpyi/a//29nYzMDBgt0JoCGTnwd27d83o6GiU1l/NA5h9w8PDNmXMzZs3bWqywcFBmzLmxo0bNgUgjRSwKhjdvXt3oSyVqcpSBbGtra1m586dRfld+588edI0Nzebrq4uuxQhIZAFAABB2Ldvn3n00UeLgtFKPP/882X3ef3116mZDRCBLAAASD0FmQcOHIjSTU1NpqOjI0qXo/36+/vtnIn2u3XrlpmYmDBHjhyJmhg4v/nNb2wKoSCQBQAAwTh48KC5dOmSefjhh+2SqR0/ftymjKmrqzO/+MUvon4qsmPHDtPS0hKlRc0MEBYCWQAAkHrr1q0z169fj9rGTsef/vQnmzLmqaeeKgSxzhNPPGFTeTQvCAuBLAAACMKyZctsqnJ+p88f/ehHNnXP448/XtS8AGEhkAWwIKgWxw25E58AZNNMRiH57LPPbAohIJAFAACZ9O2339oUsopAFgAAAEEikAWwIGiwcw23kzQBgLN48WKbQggIZAEAQCZppIPp+uEPf2hTCAGBLAAAWBD+8pe/2NQ9X331lU3lLVmyxKYQAgJZAACQWf4DD/wxZZ3Tp08Xmhg1NjbOaIgvzB8CWQAAkFlbtmyxKWNGR0dNZ2enGRkZieZ7enqKHl/78ssv2xRCQSALAABST2PC1tbWFsZ/jj/hq7m5ubBOwaqrZd26dWv0aFqnu7vbPPTQQ9F2O3fuLGynbbZv3x6lEQ4CWQAAkHrTGRPWfxCCHkn7/vvvFwWzcVp3/vz5SY+vRfoRyM6DRYsWFTKU/moewOxTezdn6dKlNjVZU1OTTc3sEZgA5t7KlSttqrzVq1fbVN7GjRvN4OCg6ejoKDovKK1lWvfoo4/apQhJzUTCIIqquh8bG4uq3YFQ6fgdHx/nOAZQEZ0rEopEACmRlEepkQUAAECQCGQBAAAQJAJZAAAABIlAFgAAAEEikAUAAECQCGQBAAAQJAJZAAAABIlAFgAAAEEikAUAAECQCGQBAAAQJAJZAAAABIlAFgAAAEEikAUAAECQaiZybLqgtrbWJCwGAAAA5k08Pk0MZAEAAIC0OXbsmE3lEcgCAAAgCApkt2/fbudoIwsAAIBAEcgCAAAgSASyAAAACBKBLAAAAIJEIAsAAIAAGfP/HMxpqe99ijEAAAAASUVORK5CYII=;" vertex="1" parent="1">
          <mxGeometry x="10" y="10" width="690" height="505" as="geometry" />
        </mxCell>
        <mxCell id="gAyMT_CePvwM3im9MJJb-41" value="G" style="align=center;strokeColor=#CCCCCC;html=1;" vertex="1" parent="1">
          <mxGeometry x="100" y="600" width="110" height="20" as="geometry" />
        </mxCell>
        <mxCell id="gAyMT_CePvwM3im9MJJb-42" value="F" style="align=center;strokeColor=#CCCCCC;html=1;" vertex="1" parent="1">
          <mxGeometry x="100" y="620" width="110" height="20" as="geometry" />
        </mxCell>
        <mxCell id="gAyMT_CePvwM3im9MJJb-43" value="E" style="align=center;strokeColor=#CCCCCC;html=1;" vertex="1" parent="1">
          <mxGeometry x="100" y="640" width="110" height="20" as="geometry" />
        </mxCell>
        <mxCell id="gAyMT_CePvwM3im9MJJb-44" value="D" style="align=center;strokeColor=#CCCCCC;html=1;" vertex="1" parent="1">
          <mxGeometry x="100" y="660" width="110" height="20" as="geometry" />
        </mxCell>
        <mxCell id="gAyMT_CePvwM3im9MJJb-46" value="C" style="align=center;strokeColor=#CCCCCC;html=1;" vertex="1" parent="1">
          <mxGeometry x="100" y="680" width="110" height="20" as="geometry" />
        </mxCell>
        <mxCell id="gAyMT_CePvwM3im9MJJb-47" value="B" style="align=center;strokeColor=#CCCCCC;html=1;" vertex="1" parent="1">
          <mxGeometry x="100" y="700" width="110" height="20" as="geometry" />
        </mxCell>
        <mxCell id="gAyMT_CePvwM3im9MJJb-48" value="A" style="align=center;strokeColor=#CCCCCC;html=1;" vertex="1" parent="1">
          <mxGeometry x="100" y="720" width="110" height="20" as="geometry" />
        </mxCell>
        <mxCell id="gAyMT_CePvwM3im9MJJb-49" value="2" style="strokeWidth=1;fontStyle=0;html=1;container=0;align=right;" vertex="1" parent="1">
          <mxGeometry x="210" y="540" width="70" height="20" as="geometry" />
        </mxCell>
        <mxCell id="gAyMT_CePvwM3im9MJJb-50" value="4" style="strokeWidth=1;fontStyle=0;html=1;container=0;align=right;" vertex="1" parent="1">
          <mxGeometry x="280" y="540" width="70" height="20" as="geometry" />
        </mxCell>
        <mxCell id="gAyMT_CePvwM3im9MJJb-51" value="6" style="strokeWidth=1;fontStyle=0;html=1;container=0;align=right;" vertex="1" parent="1">
          <mxGeometry x="350" y="540" width="70" height="20" as="geometry" />
        </mxCell>
        <mxCell id="gAyMT_CePvwM3im9MJJb-52" value="8" style="strokeWidth=1;fontStyle=0;html=1;container=0;align=right;" vertex="1" parent="1">
          <mxGeometry x="420" y="540" width="70" height="20" as="geometry" />
        </mxCell>
        <mxCell id="gAyMT_CePvwM3im9MJJb-53" value="10" style="strokeWidth=1;fontStyle=0;html=1;container=0;align=right;" vertex="1" parent="1">
          <mxGeometry x="490" y="540" width="70" height="20" as="geometry" />
        </mxCell>
        <mxCell id="gAyMT_CePvwM3im9MJJb-54" value="12" style="strokeWidth=1;fontStyle=0;html=1;container=0;align=right;" vertex="1" parent="1">
          <mxGeometry x="560" y="540" width="70" height="20" as="geometry" />
        </mxCell>
        <mxCell id="gAyMT_CePvwM3im9MJJb-55" value="14" style="strokeWidth=1;fontStyle=0;html=1;container=0;align=right;" vertex="1" parent="1">
          <mxGeometry x="630" y="540" width="70" height="20" as="geometry" />
        </mxCell>
        <mxCell id="gAyMT_CePvwM3im9MJJb-56" value="16" style="strokeWidth=1;fontStyle=0;html=1;container=0;align=right;" vertex="1" parent="1">
          <mxGeometry x="700" y="540" width="70" height="20" as="geometry" />
        </mxCell>
        <mxCell id="gAyMT_CePvwM3im9MJJb-57" value="18" style="strokeWidth=1;fontStyle=0;html=1;container=0;align=right;" vertex="1" parent="1">
          <mxGeometry x="770" y="540" width="70" height="20" as="geometry" />
        </mxCell>
        <mxCell id="gAyMT_CePvwM3im9MJJb-58" value="20" style="strokeWidth=1;fontStyle=0;html=1;container=0;align=right;" vertex="1" parent="1">
          <mxGeometry x="840" y="540" width="70" height="20" as="geometry" />
        </mxCell>
        <mxCell id="gAyMT_CePvwM3im9MJJb-59" value="" style="align=left;strokeColor=#CCCCCC;html=1;container=0;" vertex="1" parent="1">
          <mxGeometry x="210" y="600" width="1190" height="20" as="geometry" />
        </mxCell>
        <mxCell id="gAyMT_CePvwM3im9MJJb-60" value="" style="align=left;strokeColor=#CCCCCC;html=1;container=0;" vertex="1" parent="1">
          <mxGeometry x="210" y="620" width="1190" height="20" as="geometry" />
        </mxCell>
        <mxCell id="gAyMT_CePvwM3im9MJJb-63" value="" style="align=left;strokeColor=#CCCCCC;html=1;container=0;" vertex="1" parent="1">
          <mxGeometry x="210" y="680" width="1190" height="20" as="geometry" />
        </mxCell>
        <mxCell id="gAyMT_CePvwM3im9MJJb-64" value="" style="align=left;strokeColor=#CCCCCC;html=1;container=0;" vertex="1" parent="1">
          <mxGeometry x="210" y="700" width="1190" height="20" as="geometry" />
        </mxCell>
        <mxCell id="gAyMT_CePvwM3im9MJJb-65" value="" style="whiteSpace=wrap;html=1;strokeWidth=2;fillColor=#CCCCCC;gradientColor=none;fontSize=14;align=center;strokeColor=#999999;container=0;" vertex="1" parent="1">
          <mxGeometry x="320" y="700" width="390" height="20" as="geometry" />
        </mxCell>
        <mxCell id="gAyMT_CePvwM3im9MJJb-66" value="" style="whiteSpace=wrap;html=1;strokeWidth=2;fillColor=#CCCCCC;fontSize=14;align=center;strokeColor=#999999;container=0;gradientColor=none;" vertex="1" parent="1">
          <mxGeometry x="320" y="680" width="280" height="20" as="geometry" />
        </mxCell>
        <mxCell id="gAyMT_CePvwM3im9MJJb-68" value="" style="whiteSpace=wrap;html=1;strokeWidth=2;fillColor=#CCCCCC;fontSize=14;align=center;strokeColor=#999999;container=0;verticalAlign=middle;fontFamily=Helvetica;fontColor=default;gradientColor=none;" vertex="1" parent="1">
          <mxGeometry x="850" y="620" width="180" height="20" as="geometry" />
        </mxCell>
        <mxCell id="gAyMT_CePvwM3im9MJJb-69" value="" style="whiteSpace=wrap;html=1;strokeWidth=2;fillColor=#CCCCCC;fontSize=14;align=center;strokeColor=#999999;container=0;verticalAlign=middle;fontFamily=Helvetica;fontColor=default;gradientColor=none;" vertex="1" parent="1">
          <mxGeometry x="1030" y="600" width="320" height="20" as="geometry" />
        </mxCell>
        <mxCell id="gAyMT_CePvwM3im9MJJb-70" value="" style="align=left;strokeColor=#CCCCCC;html=1;container=0;" vertex="1" parent="1">
          <mxGeometry x="210" y="720" width="1190" height="20" as="geometry" />
        </mxCell>
        <mxCell id="gAyMT_CePvwM3im9MJJb-71" value="" style="whiteSpace=wrap;html=1;strokeWidth=2;fillColor=#f8cecc;fontSize=14;align=center;strokeColor=#b85450;container=0;" vertex="1" parent="1">
          <mxGeometry x="210" y="720" width="110" height="20" as="geometry" />
        </mxCell>
        <mxCell id="gAyMT_CePvwM3im9MJJb-73" value="22" style="strokeWidth=1;fontStyle=0;html=1;container=0;align=right;" vertex="1" parent="1">
          <mxGeometry x="910" y="540" width="70" height="20" as="geometry" />
        </mxCell>
        <mxCell id="gAyMT_CePvwM3im9MJJb-87" value="H" style="align=center;strokeColor=#CCCCCC;html=1;" vertex="1" parent="1">
          <mxGeometry x="100" y="580" width="110" height="20" as="geometry" />
        </mxCell>
        <mxCell id="gAyMT_CePvwM3im9MJJb-88" value="I" style="align=center;strokeColor=#CCCCCC;html=1;" vertex="1" parent="1">
          <mxGeometry x="100" y="560" width="110" height="20" as="geometry" />
        </mxCell>
        <mxCell id="gAyMT_CePvwM3im9MJJb-91" value="" style="whiteSpace=wrap;html=1;strokeWidth=2;fillColor=#f8cecc;fontSize=14;align=center;strokeColor=#b85450;container=0;verticalAlign=middle;fontFamily=Helvetica;" vertex="1" parent="1">
          <mxGeometry x="850" y="580" width="180" height="20" as="geometry" />
        </mxCell>
        <mxCell id="gAyMT_CePvwM3im9MJJb-72" value="" style="whiteSpace=wrap;html=1;strokeWidth=2;fillColor=#CCCCCC;gradientColor=none;fontSize=14;align=center;strokeColor=#999999;container=0;" vertex="1" parent="1">
          <mxGeometry x="710" y="640" width="180" height="20" as="geometry" />
        </mxCell>
        <mxCell id="gAyMT_CePvwM3im9MJJb-67" value="" style="whiteSpace=wrap;html=1;strokeWidth=2;fillColor=#f8cecc;fontSize=14;align=center;strokeColor=#b85450;container=0;" vertex="1" parent="1">
          <mxGeometry x="320" y="660" width="530" height="20" as="geometry" />
        </mxCell>
        <mxCell id="gAyMT_CePvwM3im9MJJb-92" value="" style="whiteSpace=wrap;html=1;strokeWidth=2;fillColor=#f8cecc;fontSize=14;align=center;strokeColor=#b85450;container=0;verticalAlign=middle;fontFamily=Helvetica;" vertex="1" parent="1">
          <mxGeometry x="1030" y="560" width="370" height="20" as="geometry" />
        </mxCell>
        <mxCell id="gAyMT_CePvwM3im9MJJb-45" value="Task Name" style="strokeWidth=1;fontStyle=0;html=1;" vertex="1" parent="1">
          <mxGeometry x="100" y="540" width="110" height="20" as="geometry" />
        </mxCell>
      </root>
    </mxGraphModel>
  </diagram>
  <diagram id="POUMC8GonmXDhzfkcYZ9" name="Pert">
    <mxGraphModel dx="1434" dy="844" grid="1" gridSize="10" guides="1" tooltips="1" connect="1" arrows="1" fold="1" page="1" pageScale="1" pageWidth="1169" pageHeight="827" math="0" shadow="0">
      <root>
        <mxCell id="0" />
        <mxCell id="1" parent="0" />
        <mxCell id="k3wSnffUzCLMAovXKyTC-1" value="" style="shape=image;verticalLabelPosition=bottom;labelBackgroundColor=default;verticalAlign=top;aspect=fixed;imageAspect=0;image=data:image/png,iVBORw0KGgoAAAANSUhEUgAAArIAAAH5CAYAAAB9Dt2yAAAAAXNSR0IArs4c6QAAAARnQU1BAACxjwv8YQUAAAAJcEhZcwAADsMAAA7DAcdvqGQAAECqSURBVHhe7d1/aFZXnsfxk/xvbZLuPzK4xegfMgW7Y7TQNUILNqkWVsFpYtspy1qqSUthdgftqt2BndExUloYpsZ0lClMa7TjUBdqakZQqKFsx3QaGYsDGulK6T9jTK1/J9nnc59zHs9zc588T2Ly5J6b9wuuOffX88t77vnec885t2Yix3iOHj1qXnrpJTsHAAAApFOt/QsAAAAEhUAWAAAAQSKQBQAAQJBqfvvb3xa1kRXayAIAACDtJnX2ktraWpOwGAAAAJg38fi0ZCA7NjZmampq7BIgPDp+x8fHOY4BVETnCipxgPRKyqO0kQUAAECQCGQBAAAQJAJZAAAABIlAFgAAAEEikAUAAECQCGQBAAAQJAJZAAAABIlAFgAAAEEikAUAAECQCGQBAAAQJAJZAAAABIlAFgAAAEEikAUAAECQCGTv040bN8zy5ctNTU1N9Hd4eNiumZn462m+Un19fdF+bt+JiQm7Zu7s3bu38J6dnZ12KTAzra2t0bFUX18fHc/3a6avp3ynfdy+Q0NDds3c2bdvH3kJSKFDhw4V8mZXV5ddOjV/nzVr1lSlPF6ogg5kdXC4A8UdLNV26tSpQvCqv5q/H/fzeleuXLGp/L7V8MUXX9hUvvBHmJLyUrVPvAMDA6a/vz9Kj46Oml//+tdReqbu5/W+/fbbaB/R37t370bpuUReQlr4F3JJk84P7e3t5sSJE3aPbNu9e7dNGfP666+XPTfq3OP2qaurM7/97W+j3w1zI9hAVrUrg4ODdi5P85cvX7ZzACpBXgLg8y/kkuj8cPLkSbNt27bo7p8CN+SNjIyYf/3Xf43SCmLPnz9vHn300WgecyPYQPbjjz+2qWIffvihTd0/FeQNDQ3RlZSuTpMK9q1bt5rGxsYorb+avx+z/XpAOaXy0h/+8IdZq5VV3il3q37dunWmpaUlSqsAeO2116L0TM326wGYTHf/mpubM1076zcnOHjw4JS1q8eOHYt+E4LY6gk2kPUzTVtbm02Z6Cpxtuh2Yrnbi8uWLTPXr1+PCnz9dUHoTMVfT/PAXEpLXpKzZ89Gx/7t27fNxo0b7dKZm+3XAxaiTz/9NMpHmm7dumXOnDljmpqa7No8tevOapOYXbt2Fb6/38wgidtW5xyC2OoIMpDVrVBXKCozvfLKK4UrJF0JcUsUqEw8L7366qtRWshLAOJ0l1IXhZcuXTIdHR12af4C9c0334yCOKCaggxk/VuhL730UnRbQ9X4TrnmBbpq1NWjGx1Akxqvq5eh2rdovZbpdf1MqXm3vavFKnXLVA3h3balOqHpNWprawv7Svz1kgIJBR9+5xyltawctWPSKAP+vm5/Ldd3L0W/jf976fsR5IQvnpd0O97PS+WaF0wnL/nWr19f2N6vEfZfxy1XOzy3TK+dRNu6bZRv3GdOej2fjmE/r2p7ffZy9L20nRsVwd9fv8dUeSMpL1U6KoLysLZ35whN+k16enrsFpPpe/vfUftqvpJzBjCVX/ziF0Xni3ge84/TpONt7dq1hfXxY9jtq7wiyjdumT+qx/3kxXLnL0fbuPVKJ50Tk/KmXlfLSrUhjn9H9xr+/vosKCP3HzJJ7gecGB8ft3PpcuvWLR1BhWl4eDhanju4CstyGStalqS3tzf6fv5r+FPuCnPi4sWLiev8qaurK3q9+LaffvpptHzPnj1Fy3MFVbTcl8t4hfVNTU3Rsvjrad6nz+ev9yd9b3/e/z/U9/bXJU3aX7+vT/P6bEnba/Lfs6Wlxe6VDvpMaT2O06BUXvKPMf3/lvoNyx1T081LkrQ8d5FVtDwpL+nYc+t1vLrP7O/nv49MdS6I5yWXr0W/k7+u1OTvI/ebl+LnlPik147nX/+8mDShGL9JXqlyLUn8uPzyyy/tmqnzn/j5L77e3zde7rn8UWlejJejUsn5y/HPL0r750Tluba2tqJ9kyb/9Rx//VT5W6+PPP0eccHVyJ47d86m8p2hXBvSTZs2RVcwolscSVd/ujJ77rnnEq+mHF2hrVy50s6VtnTpUptK9uyzz9pUnhsGyNHVnr9MtWHl6Gqtu7vbzk3mbhEnuXnzpk2Vpv3feustO5enhuvxHu2+qd4T6VYqLz3zzDPRX5kqL6mmdCqzlZd+/OMfF/K2lMtL27dvL9o+ifZRk6RS54Kpjmv16K7Ev//7vxe9/v3kJdVWHThwwM4l02u/8cYbdi7/fzTV+QKYDf/8z/9sU3lzMVRdqeO40rz405/+1KbyKj1/VUJlZiX9CfQdku4KOVPlb71+qVpdBNi04PTp0zZV3DEl3pEjqSf2r371q6KC5ciRI9G8JjVez11pmdWrV0dtgLQsdxVXVCBq3m2v6v+prFq1qqjjl27R+vwgQjZs2GBTpb3zzjs2lec+v9oy5q7m7NJkixcvjj5P7qo3uo3pvof29W/X+mNZinpoOnV1dYVG/3oN/V4IV6V5SXkjTnnJp5O0O6ZK5SWfO440zUde0vjMfuDY0dERdWLRpHylY72URYsWReu1j39O0L5a5sSD1nhecvsqL+m26FT+8z//06bybZnd7xd/T/0/uAJYwb22Ee2jbd0+vb29Rb8pMFMPPPCATc0tnaP+/ve/R8evyjGZaV6s9PxVjvKaH4Aqn7nPoc+gc4kfQ+ihJ1PRd3Sdvd13dD777DObwiS5H2yS3A+fyluyuQNDZ+XCFL/FmCsQC+tyB7ddeo+/b+4gt0tLyx2QRbc+NB+nZf7r+rdg4rcK3K1b8T+rbgk68dfz39P/LEm3GuLvV+n/oW7puH1yhZtdOvmz5DK7XXOPPrtbr1suaaLPlMbjOA3K5SUdX25dJXmp3O88VT7x+dv4txrjzQv8vOR/Vh2P/mfx9/FfT8eqW570/XKFWdG+pT5vXPx75gqlxOW5Ai5a7stdUBbW+3mpkt9O38Gt1y1TiTed0Hvq/x2l6XdC5flVptrWX+7nP8c/PuPr/X3j+boS+lz+6/vnDP+1Kzl/+ecLpd32ftmpyX8PZ6pzl79c57H451B57NanrXydL/ot4oKqkY3fClVNje9f/uVfbGryLdF4tbyaIsw13eL0+Z/fvxVRSbOC+G2OzZs329Q9qnWdil5DtyhV++M3SPeHE8llMpsy5ptvvrGpvKSaLtW4ITzl8pKOLx0bUi4vqSmC23au/Nu//VvRe5TKS5U0KxDVejhJNcLlapnUNMF1ovI7isQ7tblbn/eTl+I1MZpXBxB/Un52XDMivYdqq5ydO3eaFStWRJ1VuE2J2RI/tudCvHmRb6q8mItx7Fb38uJsnr80Tqyj2tik4TJdJzSnVHOIH/3oR5M+h+sEhqkFFcj6t0IVcLkD1k3xNi+lBnqXatwO0UGtg9v56KOPor/xNoeV3AqNH/w/+MEPbKoyahOkz6LCTLccp2qP58Tb1TKmbXb8z//8j02Vzkt+IZClvCT+Bds//uM/2lRlVHCqcNJvpCDaf61SZjMv6RGZuvj0p6TPoMBYBa1fGCrf6zaqCnkFtMD9+utf/2pTeUuWLLGpuTeTvBg3W+cvKnXmTzCBrGoT/ZqXSugqTQd6ku+//96m5pZf26oAUp9HQYELEtQmppJCTW2BfF999ZVNVeaJJ54oBK+qgevq6ipMLSXausZreBUMI3yh5iX/Doefl5xK85L4NZVffvmlTVVGY+26Nnd6HbVPd3nJb5fnq2ZeeuSRR2wq37742rVrUZtY/T4+BbQM7YP7oTyo48hR2VLNCg912JxuXoybrfNXqfMj5l4wgWy8Q0clFLi5/eK9p5M6sMyFeA2RPo/fc9FvDjGV+K3fpILwzp07NlVMt1L8Gtj33nsvevqIm5588km7ptgPf/hDm8q7evWqTd1D5g3PbOcl/8JsLpXLS35ziHI0fqUT7wgiUxVu/kWAakf3799fyEsaFSXJ/eQlPzAVdXjR711qSnqCmW676rdSjZWCDce/NQpMl0bJ8MuWl19+uWQejJdPs1F2lMuLSZ9lNs9ffocwnUfiTQDFPV3QqWQkF0xPMIHs0aNHbSpf8+KfuP0pfmvBNUdQtb9/AtdVpD8AswJD3WpLai/nfPLJJ9FfHayVZsL4LVG9h5/xK70VKv7r+J9fn0evW254Hse1udN3UOGmq9ck8Qynq9+Ltve5fi+NdpAUBCDdNAyU8oqUy0t+QTCbecmd3OcrL/kFkL6nXkufQ5O+S6Vt6P/yl78UPr+aOcSH+XHieUnv59rq6fdSYK0nJSV57LHHbCrv6aefLnqAgt5f763X9JsRuPbwfm26aob93xCYLne86djya2NVIxrvF+Lf+dC27pjXXx3XOgfMlqS8mPT6s3H+cuJDj+l8qv1Fn0Wv65fLuvtJE4Q5kPuPniRXeE27h+BcyhU0OhoLk+uVW0ruRF20veupG+/FmzTFewaW2j4X/EXrK+ndqd7C/jZuyh30k37n+Otp3tHn99eVm9xrx3uol5t86tGZtE3SlLZelfpMaTqO00B5yT+my+Ulvye9Jj8v+cuTpvjxkLSNJpeXpNRyZ6q8lMTfxn+9+O9QbvLzdfw3mWry97ufvBQfkWSqydH3TVrvT0m/8UKm3wSTy6FKJr+scqZzzMePxanWOfGyfqppumWpnweV9pf75cp0PkN8dBh/XdJ3jL8vkvNoEDWy8Vuh/m3BJPFRANz+usIq127mwQcftKk8tblJUm6EAF+pmiI1K8gVpnauvHKfX581d7DbuXt0BZjLJHZuMv+qOU6PICxVg6P9cicEO4cQTDcvxUcBSGteShrFYyqq3T1+/HjJ/Kd8VOrzxh8aElcqP5XLS/o8pejhCkl5O86vadLvOtX5RZ8lXoMGTJeOOd0h0OOt4372s5+VzA9arhrM+/H222/bVLJS7z2T81cpulvs57skLn/HmwhiltiAtohqKtJUk6XaFn1UTZVclai2JXfgFPaJX+lojEi9pr+NrqpU65E0zqL2zx2ohW21r95DdIXlXkd//cfz+fzvoEmv9/e//92uvSf+evErOEn6PO5q072P9o3/H+p76/dz++k1dMWsz1FfXx8t0+8Qp99E2/mfS/PuN3DL9d5pos9EjWyx3Ak8+l00VZqX3LGhaS7zkvjrStUWu2PcTdon6b2k3Ovp8+vzum2Udtv5tb/xfK186X9v/dW8W+6WuXFknfvNS/ps/vu619D/ZXycWKW1zM/zmty2mEy/DyaXofFJx5COW+Wfcvw8oUl5UucBHZ/aX/GGlsePyUrOBVIqLyrPuvfVMv8841R6/tJ3deuVjpcrpfKae62k95Zy39H/3fS+SM6jNfont6JIbW2tGRsbm1ZtIZA2On5zJxyOYwAV0bkioUgEkBJJeTSocWQBAAAAh0AWAAAAQSKQBQAAQJAIZAEAABAkAlkAAAAEiUAWAAAAQSKQBQAAQJAIZAEAABAkAlkAAAAEiUAWAAAAQSKQBQAAQJAIZAEAABAkAlkAAAAEiUAWAAAAQSKQBQAAQJAIZAEAABAkAlkAC1pfX5+pqamJpuXLl9ulAIAQEMgCWNCuXLliU8YMDw/bFAAgBASyAAAACBKBLACkyOXLl019fX3U1EF/NQ8ASEYgCwApcvfuXTM6Ohql9VfzAIBkBLIAAAAIEoEskHHuNvWaNWvMxMREdKu6vb29sFw99Q8dOmRGRkbsHvc0NDQU9ebXdm6/zs7OaJmj/bVe76P1mrSttpvq9njSfno/7Xfjxg271T1apnXaxt9+7969id/B0egE/nsofebMGbt2atN9z56eHlNbWxttd+LEicJ39PfX/4H/u+g9tLy5udkuydO826e3t9cuvUev39raWthGk15b3zeJPos+X9LvTTMGAMHJFWyT5E5sE+Pj43YOCJMOb47j/O/gpuPHj0f521/mpqampolbt27ZvfL8bTs6Ooq2b2lpsVtNTAwNDU3kgqGi9fEpF4TZre/RfnV1dYnba2psbCz6P9RrTLW91n355Zd263vin92f4q8Xp/fMBeRF2/iT9tf38HV1dRXWt7W1Rd/D38ef3Oe9ePFi4np/OnjwYLSt6P9K/wdJ27lJ39v//bSP/p+TttWk11vIeUa/AYD0SsqjBLLILB3wHMfFgWy5SQGYr1TQq8kFsgqOygWxbhoeHo72kUr3c/+HChaT1senePBbSYDoT77pvKfPD2TLTS541O+RtN6fdCHiKEBO2iY++fscOXIkcRs3EcgSyAJplpRHaVoALDC5AMhcv35dZwOTC2zs0ryDBw/aVDLtmwu4oikXrEXLTp06VTT+qpZrvV4/F0Sauro6u8aYN998M1ou8f06OjoK++UCyGi+qanJri3+bHpN3WbXtvHvodfU7XbnN7/5jU3laVvto+327Nljlyb71a9+ZVP598wFhRW9Z5z/ebVtLvC1a4zp7++P/qoZh9brN/Np3r3ntm3bomVqAnDy5MkoLfp/0eu61/d/tzfeeCNaLh999FH0V/T7utfVPvp/e/DBB+1aAAhE7iQ2CTWyyAId3hzH+d/BTarFi/8m8dvu/m1yv0ZWt6ST+Le3XS2tz68F9GtLW1tbi5aX43+WeM2x+DWU+k6OW6ZJ28Tt3bu3aBufv9y/re+Ues94jWy86YGaK/jrP/30U7tmcg2y5uP811fTBtXm+vR+/u+Vu3CJlvv/19rvzJkz0XLk6XcBkF5JeZQaWWAB+ad/+qeoc49v/fr1NpVXarinH//4xzZVzNUoOurU5E9+ByLV/Dn+fqpRnMrAwIBN5X399deT3ue7776za/Mdp/y/zubNm23qngceeMCmisXf8//+7/8qes8kq1atsqm8H/zgBzY1MxcuXLCpfGe+Y8eOFX0u/ba587vdwphvv/02+vvcc89Ff0VDe23atKnQaW2qzw8AqZWPZ4tRI4ss0OHNcVy+VnGqGsBytaDi71vJ5P5PKnltR5/J377c5GqGp1u7qcmJ71tu8mujS72mE3/t6dbI+rXZlUz+60/VYc5vT7sQ6TcAkF5JeZQaWWCB++abb2xq7vltN3137tyxqdmxevXq6O+iRYuiv85XX31lU7PPvWfaqH3ukiVL7JyJhua6du1a1MY3/v+hGttc4GznACD9CGSBBeTLL7/U5aydy3vvvfdsKs8PeirhB0PqPKXXLzVdunSp0LTB38/vuJRk5cqVNpWn8V+TXt9N+/fvj7aL39JPGif1+++/t6li8ff8+OOPE9/LTe49q8EPmvU7Jn0eN92+fbuoc5moY9mOHTui/4944PrZZ5/ZFACkH4EssIAoYFTPd9dWVQPj+21VFfAsW7bMzlXmqaeesiljDhw4EL2m/5AABY9apraYfs9+Dcjv6PNoQH63n9prqq2n9lEwpsDLD3xfeOGFSQP+q02r2nqqzajfFtffr7u7O/osovfQe5YKQOPv+ZOf/GTSAxT895yrNqaffPJJ9Fev736fxx9/PPorg4OD0ffw319p96AErdNvKKqN1bz/2+nCJR7oAkAwcie4SWgjiyzQ4c1xnP8dKp3UftJXSTvWXNA45QMD/Ml/De1XSbtX93+oHvZJ65OmeJvQpG1KTb7pvKfflvV+2siKv86f/DbOuSA7cZv45I8N648wUWqKf5aFRN8fQHol5VFqZIEFxK9hjNO4oqqxmy7V4L7zzjtRrWQ5S5cutan8fhqXdSpq3+ls3Lix7LivTrxNqL5bKXrNXIBn54rN9D3vV6n3XLx4sU0Zc/To0YpqUv0a9nLjxOp3WrdunZ0DgADYgLYINbLIAh3eHMfFtXuq0VNtoF8zp5q9eE2s4z95q9Q2jmpYcwHYpJpCzWv8Ur/G0qcxT7VeY8m6fZTWsvj4q6LXiW+vSd9J76/PkUS1pP4+GgPWfSY3Hqx68yeZ7nvqt3K1zdonTt/LvYbeM+mxukmf140H62j8WI3TG69p1X7aPv5/lvR/pPfXtowpS40skHZJebRG/+RWFKmtrTVjY2OTxpsEQqLjNxfILvjj2P/+ejrW7t277RwAn/JKQpEIICWS8ihNCwAAABAkAlkAAAAEiUAWAAAAQSKQBTKu0evZ/sgjj9gUAADho7MXMkvHL529AFSKzl5AutHZCwAAAJlBIAsAAIAgEcgCAAAgSASyAAAACFLJzl40eAcAAECaxONTRi1AZjFqAYDpYNQCIN0YtQAAAACZQSALAACAIBHIAgAAIEgEsgAAAAgSgSwAAACCRCALAACAIBHIAgAAIEgEsgAAAAgSgSwAAACCRCALAACAIBHIAgAAIEgEsgAAAAgSgSwAAACCRCALAACAIBHIzoM1a9aYmpqawqR5AAAwMyMjI+bEiROmvb3dLF++vKiMbW1tjdYhm2omcmy6oLa21oyNjUUHAGZXX1+f2bRpk527Z2hoyKxatcrOYTbo+B0fH+c4BlARnSsSikQEQMFqf3+/nUvW0dFhDh8+bOcQoqQ8So1slX388cc2VezDDz+0KQAAMB3lgljp7u6mZjaDCGSrzM9EbW1tNmXMyZMnbQoAAExHY2NjVON65swZc+vWrajWbnh4eFLTvU8//dSmkBUEslWkZgWjo6NRuqmpybzyyiuF297KcJcvX47SAACgctevX4+aDWzcuNE0NDREy5YtW2beeuutKO3cuHHDppAVBLJV5Dcr2L59u2lubjZ1dXV2Cc0LAACYTd9//71N5T355JM2hawgkK0S9ahU+xxnw4YN0V/1sHT89QAAYGbcKAY/+clP7BITVRxt3brVziErCGSr5Ny5czaVb8ujWx7ij2CgZgdqfgAAAKanp6cnaq6n6aGHHjLbtm0zt2/fjtap3L1w4UKh7EV2EMhWyenTp22quJOX2vP4So1qAAAASrtz545NFVNNrMrdRYsW2SXIEgLZKtAtDn9UgmeffbbQyUv8wJahQQAAmL7FixfbVDHd7Txw4EBUK0sZmz0EslUQb1YQf/DB5s2bbYrmBcBs0MWju8UYn1y79H379iWu18QIIkB4duzYEQ275SYNxaURgnydnZ3R+QHZQSBbBX6zAg2zFS801Y7HR/MC4P5cvXrVpib77rvvor9ffPFF9DfJ3bt3bQpAqNR07+zZs0WjA6my6NSpU3YOWUAgO8c0Zt10H3agWx9cMQIzt3LlSpuazHX2WL16dfQ3yZIlS2wKQMg0puzatWvtXF6ptrQIE4HsHPObFVRKV4wz2Q9Angov/xajP7lnrf/yl79MXK+Jns1AduhhCb5SbWkRJgLZOXb06FGbynfqSio0NanJgc9vjgAAAJINDAyY5cuXR8Nv+e3blVab+Hj56sZxRzbU5IKoCZsuqK2tNWNjY1H7TcycmhWoc5fT29tb9ACEOD0TenBw0M6Z6HnR7lF7mD4dv+Pj4xzHACqic0VCkYiUUyCrJ2VWYs+ePWb//v12DqFJyqPUyM6hePOAeDuduJdeesmm8mheAADA1Cpt097R0UEQm0EEsnNITxFxWlpayra70+0Ov3flzZs3bQoAACRR2armA6ptVVnr0/BbCmAvXrxYaB+PbKFpATKLpgUApoOmBUC60bQAAAAAmUEgCwAAgCARyAIAACBIBLIAAAAIEoEsAAAAgkQgCwAAgCARyAIAACBIBLIAAAAIEoEsAAAAglTyyV483QQAAABpEo9PeUQtMotH1AKYDh5RC6Qbj6gFAABAZhDIAgAAIEgEsgAAAAgSgSwAAACCRCALAACAIBHIAgAAIEgEsgAAAAgSgSwAAACCRCALAACAIBHIAgAAIEgEsgAAAAgSgSwAAACCRCALAACAIBHIAgAAIEgEslXQ19dnampqEqf6+nrT2tpqenp6zMjIiN0DwFxIyotnzpyxawGEQuVlZ2dnIR+rLK1E0n4TExN2LUJEIFsFV65csanJRkdHTX9/v9m5c2cU0BLMAnPn5z//uU3d8/vf/96mAIRAF6QrVqww3d3ddkm+LC1npvsh3QhkU2RwcNC88cYbdg7AbLpx40aUx+JOnjzJBSQQAOXTp59+2mzatGlaAaj2U0XRdPdDGAhk54FuY7ipt7fX1NXV2TWm6EoRwOw5d+6cTRnT1tZmU3n+OgDpdOzYMXP27Nko3dHRYZqamqJ0OdpPdz5lOvshDASy86y9vT2aAMyto0eP2pQxL774omlpabFzxpw+fdqmAKSZKn4+/vhjc/jwYdPQ0GCXlqf91B5+uvsh/QhkU8avnQUwO/xmBcpjGzduNFu2bIk6ewjNC4D02759u7l27VrURGA63H7K98geAtl5ptEK/OYEr7/+uk0BmC26tei4OyAbNmyI/jqnTp2yKQBppJrUmdSmznQ/hIFAdh64YT80abQCUS1RV1eX2bVrVzQPYPaoxtVZv3599HfZsmVFbeX8pgcAgDAQyKaEelKeP3/eXL582S4BMBuUp4aHh+1ccU3s1q1bbSo/aoiaIAAAwkEgmyLqVfnEE08QzAKz6MMPP7Sp/GgF/i1Gdfhy7WSF0QsAICwEsvPAH35LNUV79uyxa/I1s7t377ZzAO6X36xg8+bNNpW3atUq09jYaOdoXgAAoSGQnWdqp7d///6ioYDceHcA7k+8WcG2bduK2qhrun79ul1L8wIACA2BbEo8+eSTNgVgtmhUkOli9AIACAeBbEp8/fXXNgVgtpw4ccKmKvfuu+/aFAAg7Qhk55kGYT906FDRWLJ+MwMAM9PX11f0XPWhoaGi9un+pMdWOmqKQIdLAAgDgew88NvnPfTQQ5M6d+3bt8+mAMyUHmPpqEOXOnaV8swzz9hUnj/SAYB00B2W2traQvkZ70/il629vb12aX4/f118P/81Z3IXB/OLQDZF9FAEZb5169bZJQBmyi+QnnrqKZtKpkdX+o+H9kc6AJAON2/ejO6gVELbOn66nOlsi3QgkK2CRx55xKaSqSmBnuqlHtPu8ZkAZk5NA/xmBc8995xNlRZvXgAgXVSWqta0En65W64M9k1nW6RDTe7qZtLljarZx8bGKj5ggDTS8Ts+Ps5xDKAiOldUWuMHoPqS8ig1sgAAAAgSgSwAAACCRCALAACAIBHIAgAAIEgEsgAAAAgSgSwAAACCRCALAACAIBHIAgAAIEgEsgAAAAgSgSwAAACCVPIRtTymDwAAAGkSj09LBrJjY2M8ox5B0/E7Pj7OcQygIknPcQeQHkl5lKYFAAAACBKBLAAAAIJEIAsAAIAgEcgCAAAgSASyAAAACBKBLAAAAIJEIAsAAIAgEcgCAAAgSASyAAAACBKBLAAAAIJEIAsAAIAgEcgCAAAgSASyAAAACBKBLAAAAIJEIDsPLl++bDo7O82aNWtMTU1NNC1fvjxaduPGDbsVgNnW19dXyHNuOnPmjF0LIHQnTpwwra2tRXmc8jXbaiZybLqgtrbWjI2NRQcAZs/IyIh56623zIEDB+ySZL29vaa9vd3OYaZ0/I6Pj3Mco0AXj4ODg3Yur62tLSr8AJ0rEopEBEDlqwLYeP6Oo3wNW1IeJZCtImWy/v5+O1daXV2duX37tp3DTBHIwqfamMbGRjtX7NatW6ahocHOYaEikA2Xaly7u7vtXGmUr2FLyqM0LaiSQ4cOFQWxykzHjx+PClD9pwwPD5uurq5o3ejoaPQXwOw5d+6cTeVrYX3+OgBhUW2sH8Q2NTWZ69evF8rWlpYWuyZfvg4MDNg5ZAGBbBUokx08eNDO5Z0/f95s27atUAu0bNkys2vXLjM0NFSy1gjAzB09etSmjHnxxReLCrfTp0/bFIDQXL161aby3n777UI5qrJ13759URrZRCBbBart8WtZ9+zZY1atWmXnimm5riQBzB41K3Bt53Q3ZOPGjWbLli2FZicnT56MLjgBhGfJkiU2lffNN9/YVN73339vU3nx7RE2AtkqiNf2PPvss7TbBKro2LFjNmUKHT02bNgQ/XVOnTplUwBColpX/w6L2sseOXIkSmuUoBdeeCFKiyqStD2yg85eVRDvKZ3wk2MO6PilsxdEw++orZz4vZbXrl1rLl26FKXVrs6lsTDpXMH5OUwKWJ944omiu59qXuDyvXR0dJjDhw/bOYQoKY9SI1sF5YYDATB3VMD5hZlfE7t161abyudTxpkEwqRmecrDfs2sn++1nCA2mwhkAWTahx9+aFP50Qr8YbZUuPk19oxeAITrb3/7W8k+Jho1SENg0hY+ewhkq0CdSwDMD3XkcjZv3mxTearF8UcJ8Uc2ABAOPdRk06ZNhVpYXbTqqX1+DS3BbDYRyFaB2uH5uH0JVEe8WYGGvFMNrD/5NTg0LwDCozyrvO2oo5cCW41Ocvbs2aiDl6M87nf+RPgIZKtg9erVNpVH72igOnp6emyqcuRPICx+YKo7LDt27LBzefv37y+686Jx3JEdBLJVoOG2fHo4gh58AGBuqVZmut59912bAhCCL774wqawEBHIVoHa4fntdDQ8yJNPPhkNA+S31dFj8/bu3Wvq6+vtEgAz1dfXVzQUjy4eNWxL0qRheRw1RVCTBABh8O96Kv+qHHVlq/5q3m9ixDiy2cI4slWiNjwap9IvWKeS8N+CadLxyziyC5cGRXfPX9dtxamemKegVx1FHLWp0+1ILCw6V3DuDY8qgZqbm+1ceRcvXjTr1q2zcwhJUh6lRrZKdAV44cKFonY6AOaO36zgqaeesqlk6hTijy7ij3QAIN0UlPoduqaiO6EEsdlCIFtFamKgWiFlJA0NEh+WS80PlBlpPwvcHzUN8O9+PPfcczZVWrx5AYBw6A6KalqVj+MVRrobqrJV+do91Q/ZQdMCZBZNCwBMB00LgHSjaQEAAAAyg0AWAAAAQSKQBQAAQJAIZAEAABAkAlkAAAAEiUAWAAAAQSKQBQAAQJAIZAEAABAkAlkAAAAEqeSTvXi6CQAAANIkHp/yiFpkFo+oBTAdPKIWSDceUQsAAIDMIJAFAABAkAhkAQAAECQCWQAAAASJQBYAAABBIpAFAABAkAhkAQAAECQCWQAAAASJQBYAAABBIpAFAABAkAhkAQAAECQCWQAAAASJQBYAAABBIpAFAABAkAhk51hfX5+pqakpObW2tprOzk4zMDBg9wAwV5Ly45kzZ+xaAKEYGRmJyk6Xj+vr6+2ayXp6eoryfKlpaGjI7oGQEMjOsStXrthUsv7+ftPd3W2am5ujoPbGjRt2DYDZ9vOf/9ym7vn9739vUwBCoAvSFStWRGWnMzo6alOT3blzx6amdvfuXZtCSAhkU0RBbVNTk7l8+bJdAmC26CJxcHDQzt1z8uTJqHYHQLopnz799NNm06ZNUwauM7Vo0SKbQkgIZKtsYmKiMA0PD5ve3l5TV1dn1+avKl966SU7B2C2nDt3zqaMaWtrs6k8fx2AdDp27Jg5e/ZslO7o6IgqfqarpaWlqBz2p0cffdRuhZAQyM6jZcuWmfb2dnPt2rWiDKlaoxMnTtg5ALPh6NGjNmXMiy++GBVozunTp20KQJqp4ufjjz82hw8fNg0NDXYpFjIC2RRQZnz77bftXB4FKzB7/GYFKgg3btxotmzZEnXwEJoXAOm3ffv2qOJHTQsAh0A2JdatW1dUK/unP/3JpgDcL92SdHQXRDZs2BD9dU6dOmVTANJIlT73Wwurvij+SAXqZK1RDbiQDReBbIo89dRTNjV1D0wA06MaV2f9+vXRXzXt8S8e/aYHABYGBbY7d+6MAtpbt27ZpQgJgWyKLF682KYAzBaNAqKOlY5fE7t161abyrdNZ/g7YGFS/n/hhRfsHEJCIAsg0z788EObyo9W4N+aVIcv105WGL0AyJ5du3aZixcvRjWuboQCPfxgz549dos81c4y/GV4CGRT5Ouvv7YpALPFb1awefNmm8pbtWqVaWxstHM0LwCySv1Q/ItY5f39+/dHw3j5rl69alMIBYFsily6dMmmTFHhCmBm4s0Ktm3bVtTRQ9P169ftWpoXAAvNww8/bFN5N2/etCmEgkA2JQYGBgrDA4nf8QvAzKg38nQxegGwcC1dutSmEAoC2RTQsB8//elP7Vzec889Z1MAZmomDxZ59913bQpA1p0/f96m8lauXGlTCAWB7DzSLUwVtI899lhRbaw6oKg9D4CZ6+vrKxrGTp07/MdR+pPfTk5NEejwAWSDytn6+npz6NChonyt5Z2dnVEHL0dN+tR2FmEhkK0yv22eMo3a7Plt+PTUoQ8++MDOAZgpPcbSKVdAPfPMMzaV5490ACAdVPFTW1tbKEP9IFT88rW3tzda9u2330YXtLt37zaPPvpoYb3OCd3d3dE2zu9+9zubQkgIZFNENbF6/N79PrkEQHGzgnJtzvXIWl1EOv5IBwDSQR2xdAelEq7T1pIlS6K/U1HeP378uGlubrZLEBIC2Tn2yCOP2NRkyjwKXjWWnW57nj17liAWmAW6heg3K6ikzXm8eQGAdFF5qtrUSriyV0/wU35WOavy1qf5rq6uqAJJd0cRpprc1c2kyxtV3Y+NjVV8wABppON3fHyc4xhARXSuqLTGD0D1JeVRamQBAAAQJAJZAAAABIlAFgAAAEEikAUAAECQCGQBAAAQJAJZAAAABIlAFgAAAEEikAUAAECQCGQBAAAQJAJZAAAABIlAFgAAAEGqmUh4sHRtbS3PmwYAAECqxOPTkoHs2NiYqampsUuA8Oj4HR8f5zgGUBGdK6jEAdIrKY/StAAAAABBIpAFAABAkAhkAQAAECQCWQAAAASJQBYAAABBIpAFAABAkAhkAQAAECQCWQAAAASJQBYAAABBIpAFAABAkAhkAQAAECQCWQAAAASJQBYAAABBIpAFAABAkAhkq2Tv3r2mpqam7HTo0CG7B4DZsGbNmsS8pknrOjs7zcDAgN0aQIh6enoS83h8unz5st0DWUEgWyVffPGFTQGopsHBQZuaTOu6u7tNc3OzOXHihF0KIDR37tyxqandvXvXppAVBLIps3jxYpsCUE3btm0zN27csHMAsmjRokU2hawgkJ0HLS0tZnx83ExMTEyaduzYYbcCMNu6uroKeW14eNi0tbXZNXmnTp2yKQChmqqMXbVqld0KWUEgC2BBWrZsmTlw4EDUbg4AECYCWQCwaNoDAGEhkAWwIKk9bHt7e3S7Uerq6szWrVujNIBw9ff3m9ra2sJIBa2trdGoBiMjI3YLZAmB7DyIZzI3aRggAHNn9+7dhfzW2NhoLl26FC1Xm7oLFy6YhoaGaB5AdqjM3blzZxTQEsxmD4FsitBjGpgff/7zn6PCDkB2abi9559/3s4hKwhkU0SdTwBU3+joaFRby10RIEy7du0yFy9eNLdu3SqMUDA0NGT27Nljt8jTBSsPRcgWAtl5UGpokMOHD9stAMwFf/gtTWfOnDHLly+3a030cASe8gWEad26dUXNgzTU1v79+01HR4ddknf16lWbQhYQyAJYsDZu3Gh+97vf2bm8zz77zKYAZMHDDz9sU3k3b960KWQBgSyABU21OAAWjqVLl9oUsoBAFsCCRidLINvOnz9vU3krV660KWQBgSyABUvtYTWWrO/xxx+3KQAh0MVofX29OXToUFFHLi1XB05/RBINu8djarOlZkI9HmI0xunY2Fg01iJmh8avq2R4HzVKp9PX7NDxq051HMcL23T+/9UR8+zZs3YOC42OlYQiESmnC9Lm5mY7NzWNbEBzonAl5VFqZFOG25zA/FAQ+8EHH9g5AKFYsmSJTZWmJ/f19vYSxGYQgWyVrF692qamxliywOxqamqyqcl0m7GtrS0ahks1sTzZCwiPys3h4eFozFhdkPo0r2H3rl27NqkZEbKBpgXILB2/NC0AUCmaFgDpRtMCAAAAZAaBLAAAAIJEIAsAAIAgEcgCAAAgSASyAAAACBKBLAAAAIJEIAsAAIAgEcgCAAAgSASyAAAACBKBLAAAAIJEIAsAAIAgEcgCAAAgSASyAAAACBKBLAAAAIJEIAsAAIAgEcgCAAAgSASyAAAACBKBLAAAAIJUM5Fj0wW1tbUmYTEAAAAwb+LxaclAdmxszNTU1NglQHh0/I6Pj3McA6iIzhVU4gDplZRHaVoAAACAIBHIAgAAIEgEsgAAAAgSgSwAAACCRCALAACAIBHIAgAAIEgEsgAAAAgSgSwAAACCRCALAACAIBHIAgAAIEgEsgAAAAgSgSwAAACCRCALAACAIBHIAgAAIEgEslVy48YNU19fb2pqaqacenp67B4Ayrl8+bLp7Ow0a9asKeSh5cuXR8uU5ypVLn/q9dvb282JEyfsHgDSSvlZ5wCdC1weVv5WHtY5A9lSM5Fj0wW1tbVmbGws+s/H7BgYGDDNzc12rrSuri6za9cuO4f7oeN3fHyc4ziDRkZGzFtvvWUOHDhglyTr7e2NCq9yKs2f0tjYaN577z2zbt06uwRZoXNFQpGIgBw6dMjs3r3bzk3W0tJizp49a+cQmqQ8So1syixevNimAJTy/PPPlw1iRbUys214eDgKeqmdBdJFdzSnCmKRTQSy8+TTTz+Nriri044dO+wWAJKoxqW/v9/OGVNXVxfVvN66dSvKQwo0dWdDRkdHo7/TdfHixUKe1OueOXPGNDU12bV5022+AGDuKC/u3LnTzuXPC8ePHy86L+g88dprr9ktkBUEsgCCoSYFBw8etHN5Fy5ciJoPNDQ0RPPLli2LmucMDQ1FzQDul15348aN5tKlS0U1vAqS33zzTTsHYD4dO3bMpvLOnz9vtm3bVnRe0HlCeRnZQiALIBjnzp0rqmXds2ePWbVqlZ0rpuXXr1+3c7Pjv//7v6NOIw7NC4B0OHnypE0Z09HRUfK8gOwhkAUQjNOnT9tU3rPPPmtT1aHaHRWSjoJqekED80t3atR0wFm/fj2dfBcQAlkAwfALK5mPWpfHH3/cpvLu3r1rUwDmw9WrV23qnvjwWxpCT+3rFfQiWwhk54m7YoxP1O4ApQ0ODtrU/HnggQdsCkAaqW1sd3d30YWvzh0a0aC1tdUuQVYQyKYMtTsAAMwNBbQ8eChbCGRTZtGiRTYFIE5D6sy3b775xqYApFFbW1s0ZJ4bQu/IkSN2Td5HH31kU8gCAtl5UmocWXpaAqWtXbvWpvLmYxzXK1eu2FTekiVLbApAGrz66qtFw2xpfHY90QvZRCALIBirV6+2qbxTp07ZVHWoo4ja3jkap1bjUwKYP/E7mV999ZVNYSEgkAUQjPhwW3o4QjU7SP7Xf/2XuX37tp0z5uWXX7YpAPMlfidT5wTd4fQxWkF2EcgCCIYKLP8WocZxfeKJJ6IHE/gF1cDAgNm7d2/Rwwu03g3Ho+V6DG0ltF9fX1/U2/nw4cN2ab697vbt2+0cgPmkdrGO7pq4Dl3KvxqKyx/xZMuWLTaFLKjJXbUUX7bk1NbWmrGxseiEj9mhgrW5udnO5dvI+vOYfTp+x8fHOY4zRu1im5qaip7wNRV3iovnQdXmajgeia+rhALhdevW2Tlkgc4VCUUiAlBpHlZzoM8//7zw6FqEJSmPUiMLIChqk3rhwoWoQLofS5cutanp0fsODQ0RxAIpovzoP3UvifLuH//4R4LYjCGQrRI1RndDB+kvw2wBM6cmBtevXze9vb3RLcX4sFxqfrBnz54o4CzFHwFBIw9MNbSXXk+FpIb00fsyugiQPmr6ozzqNzMQ5V8NwaWaWPJu9tC0AJlF0wL41E7OjTigoPSdd97h2ECRpNuWANIjKY8SyCKzdPwSyELU4WPFihVRu1rVvF67do3bi5iEQBZIt6Q8StMCAJl37NixQuew999/nyAWADKCQBZA5v3hD3+I/qrdrP/EHwBA2GhagMyiaQGA6aBpAZBuNC0AAABAZhDIAgAAIEgEsgAAAAgSgSwAAACCRCALAACAIJUctYCemwAAAEiTeHzK8FvILIbfAjAdDL8FpBvDbwEAACAzCGQBAAAQJAJZAAAABIlAFgAAAEEikAUAAECQCGQBAAAQJAJZAAAABIlAFgAAAEEikAUAAECQCGQBAAAQJAJZAAAABIlAFgAAAEEikAUAAECQCGQBAAAQJALZKrt8+bLZu3evaW1tNTU1NYVp+fLlprOz05w4ccJuCWC2KM/5+S1pqq+vt1sDCJXK0Hj5umbNGtPT02O3QNbUTOTYdEFtba0ZGxuLDgDMjpGREfPKK6+YkydP2iWlNTU1RdstW7bMLsFM6PgdHx/nOEZUsPX399u50hJOh1hAdK7gGAiTyljl88HBQbtkMpWtZ8+eNQ0NDXYJQpOUR6mRrQLVwq5YsaKiIFaUEU+dOmXnAFRDXV2dTQEIjSqKpgpiRevfeustO4esIJCtgpdeesmMjo7aOWMaGxvN8ePHzfDwcHRloWloaMjs2bOHwhSYYy0tLYV850+3b9+2WwAIyY0bN4oqilTzev369ShfX7x4MSpzne7u7qj2FtlBIDvHDh06VHSVqAz2+eefm23bthU1HVi1apXZv3+/uXbtmmlra7NLAQDAVM6dO2dTeQpqXfC6bt0688tf/jJKiyqVrl69aueQBQSyc+zdd9+1qfyty3Ltc7ROjdV37dpllwAAgFLu3LljU3nx/iVr1661qbzPPvvMppAFBLJzSG1j1XzA6ejooJE5AABzKN50gI7T2UYgO4fity+efvppmwIAALNh8eLFNpX3xhtvmFu3bkVptZ9VEz9kF4HsHLp586ZNJdNIBhpKImnq6+uzWwGYTRqGKynPtbe32y0AhGTDhg02lacOXf/wD/8Q5Wu1ld29e7ddgywikJ1HfrODuCtXrtgUgGr47rvvbApASNR0oKury85hoSGQnUf+kCAA5teDDz5oUwBCow7SZ86ciYbX82kUoN7eXjuHLCKQnUOPP/64TeV98sknNpWnobb8cSwBzL1S48jyeGggbBs3boxGBorn63jTg6VLl9oUsoBAdg6tXLnSpvI0th0DMQMAUD3xcWbjw3EhbASyc0hDbWnILUdtYtWbEgAAzD1VHu3bt8/O5R9KxHBc2UIgO8d+9rOfFT12Vr0p16xZE93u8GtnGaUAAICZUZmqScNtOSpXW1tbizpW/8d//IdNISsIZOeYrvzef/99O5enR9bqEbUPPfRQYeifTZs22bUAAGA63nvvvahcVSdqv1z1HxGv9vEMs5c9BLJVoAboQ0ND0xqlID7AMwAAmBmNXvDBBx/YOWQJgWyVrFq1yly/fj0aHkTtZtVOx6cgV1eLGgtPQe+OHTvsGgD3y28TR/s4IHtUdqps9SuMlFYAe/HixajZAY+Iz6aaCY1PEVNbW2vGxsaiqnkgVDp+x8fHOY4BVETnioQiEUBKJOVRamQBAAAQJAJZAAAABIlAFgAAAEEikAUAAECQCGQBAAAQJAJZAAAABIlAFgAAAEEikAUAAECQCGQBAAAQpJJP9uLpJgAAAEiTeHzKI2qRWTyiFsB08IhaIN14RC0AAAAyg0AWAAAAQSKQBQAAQJAIZAEAABAkAlkAAAAEiUAWAAAAQSKQBQAAQJAIZAEAABAkAlkAAAAEiUAWAAAAQSKQBQAAQJAIZAEAABAkAlkAAAAEiUAWAAAAQSKQnWMnTpwwNTU10bR8+XK7dLK+vr7CdvX19eby5ct2DYCZWrNmTSFfxSflx9bWVtPT02NGRkbsHgBCd+PGDdPZ2RnlcZffVa62t7dTtmYQgewcu3nzpk0ZMzw8bFOTXblyxaaMGR0dNXfv3rVzAGZqcHDQpiZTfuzv7zc7d+40K1asiAJaAGE7dOiQaWxsNN3d3UVlrsrVkydPmt27d9slyAoCWQALngo5BbSqxQEQJl2MEqguPASyABaErq4uMzExUZguXrxo2tra7No81eKomQ+AsKg5gS5Gnbq6OnP8+HFz69atKL+rdra3t9e89tprdgtkBYEsgAVp3bp1URt2FW4+CjogPMeOHbOpvPPnz5tt27aZhoaGaH7ZsmVRG9mNGzdG88gOAlkAC5oKt5aWFjuXbztLhxAgLGr/6nR0dJhVq1bZOWQdgSyABS9eC/u///u/NgUg7TTqiN+xa/369dFIBVgYCGSrzA0FEp9ooA7Mn8cee8ym8u7cuWNTANLu6tWrNnVPfPgtDcWnEQ0Yai97CGQBLHiuHR2A8KltbHz4LQ3FpwojjR2NbCGQBQAAC4ICWsaMzhYC2Srzh//xJw0NBGB+aOgeANmgYfXOnDlTKF+PHDli1+R99NFHNoUsIJAFsOD97W9/s6m8pUuX2hSA0Lz66qtFw2zt2LGjaGQSZAuBLIAF79e//rVN5a1du9amAKTdokWLbCrvq6++siksBASyABY0PRShv7/fzpmo5kaDpwMIQ3zMWI0DrSYFPkYryC4CWQAL0sDAQDREj3o4+/bt22dTAELhP25aIxa4Dl0KYJXP1cnL2bJli00hCwhkASwIGnrHH7u5ubk5KvB86nSpR9cCCIvaxfr0dC/l84ceeqgonzc2NpqtW7faOWQBgSyABa+urs709vaaXbt22SUAQqILUAWvU1EQ+8c//pFxozOGQHaO+b2flYlKeeSRR2wqX6jGG68DmL6mpiabmkzrdDtSAey1a9dMe3u7XQMgRIcPH46G3fKbGYjavWsIrs8//3xSe1qEr2Yi3iI6p7a21oyNjUXV8kCodPyOj49zHAOoiM4VCUUigJRIyqPUyAIAACBIBLIAAAAIEoEsAAAAgkQgCwAAgCARyAIAACBIBLIAAAAIEoEsAAAAgkQgCwAAgCARyAIAACBIJZ/sxdNNAAAAkCbx+JRH1CKzeEQtgOngEbVAuvGIWgAAAGQGgSwAAACCRCALAACAIBHIAgAAIEgEsgAAAAgSgSwAAACCRCALAACAIBHIAgAAIEgEsgAAAAgSgSwAAACCRCALAACAIBHIAgAAIEgEsgAAAAgSgSwAAACCRCA7Dy5fvmwaGhpMTU2Nqa+vj+YBzL7ly5dH+UzTiRMn7NLJ1qxZU9ius7PTLgWQZocOHYrKUJd3y5WlIyMjpqenpyi/a//29nYzMDBgt0JoCGTnwd27d83o6GiU1l/NA5h9w8PDNmXMzZs3bWqywcFBmzLmxo0bNgUgjRSwKhjdvXt3oSyVqcpSBbGtra1m586dRfld+588edI0Nzebrq4uuxQhIZAFAABB2Ldvn3n00UeLgtFKPP/882X3ef3116mZDRCBLAAASD0FmQcOHIjSTU1NpqOjI0qXo/36+/vtnIn2u3XrlpmYmDBHjhyJmhg4v/nNb2wKoSCQBQAAwTh48KC5dOmSefjhh+2SqR0/ftymjKmrqzO/+MUvon4qsmPHDtPS0hKlRc0MEBYCWQAAkHrr1q0z169fj9rGTsef/vQnmzLmqaeeKgSxzhNPPGFTeTQvCAuBLAAACMKyZctsqnJ+p88f/ehHNnXP448/XtS8AGEhkAWwIKgWxw25E58AZNNMRiH57LPPbAohIJAFAACZ9O2339oUsopAFgAAAEEikAWwIGiwcw23kzQBgLN48WKbQggIZAEAQCZppIPp+uEPf2hTCAGBLAAAWBD+8pe/2NQ9X331lU3lLVmyxKYQAgJZAACQWf4DD/wxZZ3Tp08Xmhg1NjbOaIgvzB8CWQAAkFlbtmyxKWNGR0dNZ2enGRkZieZ7enqKHl/78ssv2xRCQSALAABST2PC1tbWFsZ/jj/hq7m5ubBOwaqrZd26dWv0aFqnu7vbPPTQQ9F2O3fuLGynbbZv3x6lEQ4CWQAAkHrTGRPWfxCCHkn7/vvvFwWzcVp3/vz5SY+vRfoRyM6DRYsWFTKU/moewOxTezdn6dKlNjVZU1OTTc3sEZgA5t7KlSttqrzVq1fbVN7GjRvN4OCg6ejoKDovKK1lWvfoo4/apQhJzUTCIIqquh8bG4uq3YFQ6fgdHx/nOAZQEZ0rEopEACmRlEepkQUAAECQCGQBAAAQJAJZAAAABIlAFgAAAEEikAUAAECQCGQBAAAQJAJZAAAABIlAFgAAAEEikAUAAECQCGQBAAAQJAJZAAAABIlAFgAAAEEikAUAAECQaiZybLqgtrbWJCwGAAAA5k08Pk0MZAEAAIC0OXbsmE3lEcgCAAAgCApkt2/fbudoIwsAAIBAEcgCAAAgSASyAAAACBKBLAAAAIJEIAsAAIAAGfP/HMxpqe99ijEAAAAASUVORK5CYII=;" parent="1" vertex="1">
          <mxGeometry x="10" y="10" width="690" height="505" as="geometry" />
        </mxCell>
        <mxCell id="BL0wC5FVQ3OfphZJr9TU-1" value="" style="group" parent="1" connectable="0" vertex="1">
          <mxGeometry x="1090" y="330" width="80" height="80" as="geometry" />
        </mxCell>
        <mxCell id="BL0wC5FVQ3OfphZJr9TU-2" value="" style="shape=lineEllipse;perimeter=ellipsePerimeter;whiteSpace=wrap;html=1;backgroundOutline=1;movable=1;resizable=1;rotatable=1;deletable=1;editable=1;locked=0;connectable=1;container=0;" parent="BL0wC5FVQ3OfphZJr9TU-1" vertex="1">
          <mxGeometry width="80" height="80" as="geometry" />
        </mxCell>
        <mxCell id="BL0wC5FVQ3OfphZJr9TU-3" value="" style="line;strokeWidth=2;direction=south;html=1;noLabel=0;movable=1;resizable=1;rotatable=1;deletable=1;editable=1;locked=0;connectable=1;container=0;" parent="BL0wC5FVQ3OfphZJr9TU-1" vertex="1">
          <mxGeometry x="35" width="10" height="40" as="geometry" />
        </mxCell>
        <mxCell id="BL0wC5FVQ3OfphZJr9TU-4" value="&lt;font style=&quot;font-size: 12px;&quot;&gt;22&lt;/font&gt;" style="text;html=1;align=center;verticalAlign=middle;resizable=1;points=[];autosize=1;strokeColor=none;fillColor=none;fontSize=8;movable=1;rotatable=1;deletable=1;editable=1;locked=0;connectable=1;container=0;" parent="BL0wC5FVQ3OfphZJr9TU-1" vertex="1">
          <mxGeometry x="35" y="10" width="40" height="30" as="geometry" />
        </mxCell>
        <mxCell id="BL0wC5FVQ3OfphZJr9TU-5" value="22" style="text;html=1;align=center;verticalAlign=middle;resizable=1;points=[];autosize=1;strokeColor=none;fillColor=none;labelBackgroundColor=none;fontStyle=1;fontSize=12;movable=1;rotatable=1;deletable=1;editable=1;locked=0;connectable=1;container=0;" parent="BL0wC5FVQ3OfphZJr9TU-1" vertex="1">
          <mxGeometry y="10" width="40" height="30" as="geometry" />
        </mxCell>
        <mxCell id="BL0wC5FVQ3OfphZJr9TU-6" value="" style="group" parent="1" connectable="0" vertex="1">
          <mxGeometry x="910" y="631" width="80" height="80" as="geometry" />
        </mxCell>
        <mxCell id="BL0wC5FVQ3OfphZJr9TU-7" value="" style="shape=lineEllipse;perimeter=ellipsePerimeter;whiteSpace=wrap;html=1;backgroundOutline=1;movable=1;resizable=1;rotatable=1;deletable=1;editable=1;locked=0;connectable=1;container=0;" parent="BL0wC5FVQ3OfphZJr9TU-6" vertex="1">
          <mxGeometry width="80" height="80" as="geometry" />
        </mxCell>
        <mxCell id="BL0wC5FVQ3OfphZJr9TU-8" value="" style="line;strokeWidth=2;direction=south;html=1;noLabel=0;movable=1;resizable=1;rotatable=1;deletable=1;editable=1;locked=0;connectable=1;container=0;" parent="BL0wC5FVQ3OfphZJr9TU-6" vertex="1">
          <mxGeometry x="35" width="10" height="40" as="geometry" />
        </mxCell>
        <mxCell id="BL0wC5FVQ3OfphZJr9TU-9" value="&lt;font size=&quot;1&quot; style=&quot;&quot;&gt;&lt;b style=&quot;font-size: 13px;&quot;&gt;3&lt;/b&gt;&lt;/font&gt;" style="text;html=1;align=center;verticalAlign=middle;resizable=1;points=[];autosize=1;strokeColor=none;fillColor=none;fontSize=8;movable=1;rotatable=1;deletable=1;editable=1;locked=0;connectable=1;container=0;" parent="BL0wC5FVQ3OfphZJr9TU-6" vertex="1">
          <mxGeometry x="40" y="10" width="30" height="30" as="geometry" />
        </mxCell>
        <mxCell id="BL0wC5FVQ3OfphZJr9TU-10" value="&lt;font style=&quot;font-size: 12px;&quot;&gt;3&lt;/font&gt;" style="text;html=1;align=center;verticalAlign=middle;resizable=1;points=[];autosize=1;strokeColor=none;fillColor=none;labelBackgroundColor=none;fontStyle=1;fontSize=8;movable=1;rotatable=1;deletable=1;editable=1;locked=0;connectable=1;container=0;" parent="BL0wC5FVQ3OfphZJr9TU-6" vertex="1">
          <mxGeometry x="5" y="10" width="30" height="30" as="geometry" />
        </mxCell>
        <mxCell id="BL0wC5FVQ3OfphZJr9TU-11" value="" style="group" parent="1" connectable="0" vertex="1">
          <mxGeometry x="1140" y="631" width="80" height="80" as="geometry" />
        </mxCell>
        <mxCell id="BL0wC5FVQ3OfphZJr9TU-12" value="" style="shape=lineEllipse;perimeter=ellipsePerimeter;whiteSpace=wrap;html=1;backgroundOutline=1;movable=1;resizable=1;rotatable=1;deletable=1;editable=1;locked=0;connectable=1;container=0;" parent="BL0wC5FVQ3OfphZJr9TU-11" vertex="1">
          <mxGeometry width="80" height="80" as="geometry" />
        </mxCell>
        <mxCell id="BL0wC5FVQ3OfphZJr9TU-13" value="" style="line;strokeWidth=2;direction=south;html=1;noLabel=0;movable=1;resizable=1;rotatable=1;deletable=1;editable=1;locked=0;connectable=1;container=0;" parent="BL0wC5FVQ3OfphZJr9TU-11" vertex="1">
          <mxGeometry x="35" width="10" height="40" as="geometry" />
        </mxCell>
        <mxCell id="BL0wC5FVQ3OfphZJr9TU-14" value="&lt;font style=&quot;font-size: 12px;&quot;&gt;39&lt;/font&gt;" style="text;html=1;align=center;verticalAlign=middle;resizable=1;points=[];autosize=1;strokeColor=none;fillColor=none;fontSize=8;movable=1;rotatable=1;deletable=1;editable=1;locked=0;connectable=1;container=0;" parent="BL0wC5FVQ3OfphZJr9TU-11" vertex="1">
          <mxGeometry x="35" y="10" width="40" height="30" as="geometry" />
        </mxCell>
        <mxCell id="BL0wC5FVQ3OfphZJr9TU-15" value="&lt;font style=&quot;font-size: 12px;&quot;&gt;16&lt;/font&gt;" style="text;html=1;align=center;verticalAlign=middle;resizable=1;points=[];autosize=1;strokeColor=none;fillColor=none;labelBackgroundColor=none;fontStyle=1;fontSize=8;movable=1;rotatable=1;deletable=1;editable=1;locked=0;connectable=1;container=0;" parent="BL0wC5FVQ3OfphZJr9TU-11" vertex="1">
          <mxGeometry y="10" width="40" height="30" as="geometry" />
        </mxCell>
        <mxCell id="BL0wC5FVQ3OfphZJr9TU-16" value="" style="group" parent="1" connectable="0" vertex="1">
          <mxGeometry x="990" y="671" width="150" height="30" as="geometry" />
        </mxCell>
        <mxCell id="BL0wC5FVQ3OfphZJr9TU-17" style="edgeStyle=none;curved=1;html=1;startSize=10;endFill=1;endSize=10;strokeWidth=2;fontSize=12;" parent="BL0wC5FVQ3OfphZJr9TU-16" edge="1">
          <mxGeometry relative="1" as="geometry">
            <mxPoint as="sourcePoint" />
            <mxPoint x="150" as="targetPoint" />
          </mxGeometry>
        </mxCell>
        <mxCell id="BL0wC5FVQ3OfphZJr9TU-18" value="13" style="text;html=1;resizable=0;points=[];align=center;verticalAlign=middle;labelBackgroundColor=#ffffff;fontSize=20;" parent="BL0wC5FVQ3OfphZJr9TU-17" connectable="0" vertex="1">
          <mxGeometry x="0.1545" relative="1" as="geometry">
            <mxPoint x="3" y="-20" as="offset" />
          </mxGeometry>
        </mxCell>
        <mxCell id="BL0wC5FVQ3OfphZJr9TU-19" value="B" style="text;html=1;strokeColor=none;fillColor=none;align=center;verticalAlign=middle;whiteSpace=wrap;rounded=0;shadow=1;labelBackgroundColor=none;fontSize=20;" parent="BL0wC5FVQ3OfphZJr9TU-16" vertex="1">
          <mxGeometry x="61.36363636363636" y="10" width="27.27272727272727" height="20" as="geometry" />
        </mxCell>
        <mxCell id="BL0wC5FVQ3OfphZJr9TU-20" value="" style="group" parent="1" connectable="0" vertex="1">
          <mxGeometry x="1410" y="370" width="80" height="80" as="geometry" />
        </mxCell>
        <mxCell id="BL0wC5FVQ3OfphZJr9TU-21" value="" style="shape=lineEllipse;perimeter=ellipsePerimeter;whiteSpace=wrap;html=1;backgroundOutline=1;movable=1;resizable=1;rotatable=1;deletable=1;editable=1;locked=0;connectable=1;container=0;" parent="BL0wC5FVQ3OfphZJr9TU-20" vertex="1">
          <mxGeometry width="80" height="80" as="geometry" />
        </mxCell>
        <mxCell id="BL0wC5FVQ3OfphZJr9TU-22" value="" style="line;strokeWidth=2;direction=south;html=1;noLabel=0;movable=1;resizable=1;rotatable=1;deletable=1;editable=1;locked=0;connectable=1;container=0;" parent="BL0wC5FVQ3OfphZJr9TU-20" vertex="1">
          <mxGeometry x="35" width="10" height="40" as="geometry" />
        </mxCell>
        <mxCell id="BL0wC5FVQ3OfphZJr9TU-23" value="&lt;font style=&quot;font-size: 12px;&quot;&gt;39&lt;/font&gt;" style="text;html=1;align=center;verticalAlign=middle;resizable=1;points=[];autosize=1;strokeColor=none;fillColor=none;fontSize=8;movable=1;rotatable=1;deletable=1;editable=1;locked=0;connectable=1;container=0;" parent="BL0wC5FVQ3OfphZJr9TU-20" vertex="1">
          <mxGeometry x="35" y="10" width="40" height="30" as="geometry" />
        </mxCell>
        <mxCell id="BL0wC5FVQ3OfphZJr9TU-24" value="&lt;font style=&quot;font-size: 12px;&quot;&gt;39&lt;/font&gt;" style="text;html=1;align=center;verticalAlign=middle;resizable=1;points=[];autosize=1;strokeColor=none;fillColor=none;labelBackgroundColor=none;fontStyle=1;fontSize=8;movable=1;rotatable=1;deletable=1;editable=1;locked=0;connectable=1;container=0;" parent="BL0wC5FVQ3OfphZJr9TU-20" vertex="1">
          <mxGeometry y="10" width="40" height="30" as="geometry" />
        </mxCell>
        <mxCell id="BL0wC5FVQ3OfphZJr9TU-25" value="" style="group;perimeterSpacing=7;strokeWidth=7;strokeColor=none;" parent="1" connectable="0" vertex="1">
          <mxGeometry x="950" y="430" width="260" height="30" as="geometry" />
        </mxCell>
        <mxCell id="BL0wC5FVQ3OfphZJr9TU-26" value="D" style="text;html=1;strokeColor=none;fillColor=none;align=center;verticalAlign=middle;whiteSpace=wrap;rounded=0;shadow=1;labelBackgroundColor=none;fontSize=20;" parent="BL0wC5FVQ3OfphZJr9TU-25" vertex="1">
          <mxGeometry x="106.36363636363636" y="10" width="47.272727272727266" height="20" as="geometry" />
        </mxCell>
        <mxCell id="BL0wC5FVQ3OfphZJr9TU-27" value="E" style="text;html=1;strokeColor=none;fillColor=none;align=center;verticalAlign=middle;whiteSpace=wrap;rounded=0;shadow=1;labelBackgroundColor=none;fontSize=20;" parent="BL0wC5FVQ3OfphZJr9TU-25" vertex="1">
          <mxGeometry x="206.36363636363637" y="4" width="47.272727272727266" height="20" as="geometry" />
        </mxCell>
        <mxCell id="BL0wC5FVQ3OfphZJr9TU-28" value="" style="endArrow=none;dashed=1;html=1;rounded=0;strokeWidth=3;entryX=1;entryY=0;entryDx=0;entryDy=0;exitX=0.263;exitY=0.938;exitDx=0;exitDy=0;exitPerimeter=0;" parent="1" source="BL0wC5FVQ3OfphZJr9TU-50" target="BL0wC5FVQ3OfphZJr9TU-12" edge="1">
          <mxGeometry width="50" height="50" relative="1" as="geometry">
            <mxPoint x="1120" y="534" as="sourcePoint" />
            <mxPoint x="1220" y="638" as="targetPoint" />
          </mxGeometry>
        </mxCell>
        <mxCell id="BL0wC5FVQ3OfphZJr9TU-29" value="" style="group" parent="1" connectable="0" vertex="1">
          <mxGeometry x="690" y="671" width="220" height="40" as="geometry" />
        </mxCell>
        <mxCell id="BL0wC5FVQ3OfphZJr9TU-30" style="edgeStyle=none;curved=1;html=1;startSize=10;endFill=1;endSize=10;strokeWidth=2;fontSize=12;fillColor=#f8cecc;strokeColor=#b85450;" parent="BL0wC5FVQ3OfphZJr9TU-29" edge="1">
          <mxGeometry relative="1" as="geometry">
            <mxPoint as="sourcePoint" />
            <mxPoint x="220" as="targetPoint" />
          </mxGeometry>
        </mxCell>
        <mxCell id="BL0wC5FVQ3OfphZJr9TU-31" value="3" style="text;html=1;resizable=0;points=[];align=center;verticalAlign=middle;labelBackgroundColor=#ffffff;fontSize=20;" parent="BL0wC5FVQ3OfphZJr9TU-30" connectable="0" vertex="1">
          <mxGeometry x="0.1545" relative="1" as="geometry">
            <mxPoint x="3" y="-20" as="offset" />
          </mxGeometry>
        </mxCell>
        <mxCell id="BL0wC5FVQ3OfphZJr9TU-32" value="A" style="text;html=1;strokeColor=none;fillColor=none;align=center;verticalAlign=middle;whiteSpace=wrap;rounded=0;shadow=1;labelBackgroundColor=none;fontSize=20;" parent="BL0wC5FVQ3OfphZJr9TU-29" vertex="1">
          <mxGeometry x="90" y="10" width="40" height="20" as="geometry" />
        </mxCell>
        <mxCell id="BL0wC5FVQ3OfphZJr9TU-33" value="" style="group;labelBorderColor=default;textShadow=0;" parent="BL0wC5FVQ3OfphZJr9TU-29" connectable="0" vertex="1">
          <mxGeometry x="-50" y="-40" width="80" height="80" as="geometry" />
        </mxCell>
        <mxCell id="BL0wC5FVQ3OfphZJr9TU-34" value="" style="shape=lineEllipse;perimeter=ellipsePerimeter;whiteSpace=wrap;html=1;backgroundOutline=1;movable=1;resizable=1;rotatable=1;deletable=1;editable=1;locked=0;connectable=1;container=0;" parent="BL0wC5FVQ3OfphZJr9TU-33" vertex="1">
          <mxGeometry width="80" height="80" as="geometry" />
        </mxCell>
        <mxCell id="BL0wC5FVQ3OfphZJr9TU-35" value="" style="line;strokeWidth=2;direction=south;html=1;noLabel=0;movable=1;resizable=1;rotatable=1;deletable=1;editable=1;locked=0;connectable=1;container=0;" parent="BL0wC5FVQ3OfphZJr9TU-33" vertex="1">
          <mxGeometry x="35" width="10" height="40" as="geometry" />
        </mxCell>
        <mxCell id="BL0wC5FVQ3OfphZJr9TU-36" value="&lt;font size=&quot;1&quot; style=&quot;&quot;&gt;&lt;b style=&quot;font-size: 12px;&quot;&gt;0&lt;/b&gt;&lt;/font&gt;" style="text;html=1;align=center;verticalAlign=middle;resizable=1;points=[];autosize=1;strokeColor=none;fillColor=none;fontSize=8;movable=1;rotatable=1;deletable=1;editable=1;locked=0;connectable=1;container=0;" parent="BL0wC5FVQ3OfphZJr9TU-33" vertex="1">
          <mxGeometry x="40" y="10" width="30" height="30" as="geometry" />
        </mxCell>
        <mxCell id="BL0wC5FVQ3OfphZJr9TU-37" value="&lt;font style=&quot;font-size: 13px;&quot;&gt;0&lt;/font&gt;" style="text;html=1;align=center;verticalAlign=middle;resizable=1;points=[];autosize=1;strokeColor=none;fillColor=none;labelBackgroundColor=none;fontStyle=1;fontSize=8;movable=1;rotatable=1;deletable=1;editable=1;locked=0;connectable=1;container=0;" parent="BL0wC5FVQ3OfphZJr9TU-33" vertex="1">
          <mxGeometry x="5" y="10" width="30" height="30" as="geometry" />
        </mxCell>
        <mxCell id="BL0wC5FVQ3OfphZJr9TU-38" value="" style="group" parent="1" connectable="0" vertex="1">
          <mxGeometry x="950" y="566" width="220" height="30" as="geometry" />
        </mxCell>
        <mxCell id="BL0wC5FVQ3OfphZJr9TU-39" style="edgeStyle=none;curved=1;html=1;startSize=10;endFill=1;endSize=10;strokeWidth=2;fontSize=12;fillColor=#f8cecc;strokeColor=#b85450;exitX=0;exitY=0.5;exitDx=0;exitDy=0;exitPerimeter=0;" parent="BL0wC5FVQ3OfphZJr9TU-38" source="BL0wC5FVQ3OfphZJr9TU-8" edge="1">
          <mxGeometry relative="1" as="geometry">
            <mxPoint as="sourcePoint" />
            <mxPoint x="30" y="-26" as="targetPoint" />
          </mxGeometry>
        </mxCell>
        <mxCell id="BL0wC5FVQ3OfphZJr9TU-40" value="7" style="text;html=1;resizable=0;points=[];align=center;verticalAlign=middle;labelBackgroundColor=#ffffff;fontSize=20;" parent="BL0wC5FVQ3OfphZJr9TU-39" connectable="0" vertex="1">
          <mxGeometry x="0.1545" relative="1" as="geometry">
            <mxPoint x="18" y="2" as="offset" />
          </mxGeometry>
        </mxCell>
        <mxCell id="BL0wC5FVQ3OfphZJr9TU-41" value="" style="group;labelBorderColor=default;textShadow=0;" parent="1" connectable="0" vertex="1">
          <mxGeometry x="940" y="460" width="80" height="80" as="geometry" />
        </mxCell>
        <mxCell id="BL0wC5FVQ3OfphZJr9TU-42" value="" style="shape=lineEllipse;perimeter=ellipsePerimeter;whiteSpace=wrap;html=1;backgroundOutline=1;movable=1;resizable=1;rotatable=1;deletable=1;editable=1;locked=0;connectable=1;container=0;" parent="BL0wC5FVQ3OfphZJr9TU-41" vertex="1">
          <mxGeometry width="80" height="80" as="geometry" />
        </mxCell>
        <mxCell id="BL0wC5FVQ3OfphZJr9TU-43" value="" style="line;strokeWidth=2;direction=south;html=1;noLabel=0;movable=1;resizable=1;rotatable=1;deletable=1;editable=1;locked=0;connectable=1;container=0;" parent="BL0wC5FVQ3OfphZJr9TU-41" vertex="1">
          <mxGeometry x="35" width="10" height="40" as="geometry" />
        </mxCell>
        <mxCell id="BL0wC5FVQ3OfphZJr9TU-44" value="&lt;font style=&quot;font-size: 12px;&quot;&gt;10&lt;/font&gt;" style="text;html=1;align=center;verticalAlign=middle;resizable=1;points=[];autosize=1;strokeColor=none;fillColor=none;fontSize=8;movable=1;rotatable=1;deletable=1;editable=1;locked=0;connectable=1;container=0;" parent="BL0wC5FVQ3OfphZJr9TU-41" vertex="1">
          <mxGeometry x="35" y="10" width="40" height="30" as="geometry" />
        </mxCell>
        <mxCell id="BL0wC5FVQ3OfphZJr9TU-45" value="&lt;font style=&quot;font-size: 12px;&quot;&gt;10&lt;/font&gt;" style="text;html=1;align=center;verticalAlign=middle;resizable=1;points=[];autosize=1;strokeColor=none;fillColor=none;labelBackgroundColor=none;fontStyle=1;fontSize=8;movable=1;rotatable=1;deletable=1;editable=1;locked=0;connectable=1;container=0;" parent="BL0wC5FVQ3OfphZJr9TU-41" vertex="1">
          <mxGeometry y="10" width="40" height="30" as="geometry" />
        </mxCell>
        <mxCell id="BL0wC5FVQ3OfphZJr9TU-46" value="C" style="text;html=1;strokeColor=none;fillColor=none;align=center;verticalAlign=middle;whiteSpace=wrap;rounded=0;shadow=1;labelBackgroundColor=none;fontSize=20;" parent="1" vertex="1">
          <mxGeometry x="930" y="566" width="40" height="20" as="geometry" />
        </mxCell>
        <mxCell id="BL0wC5FVQ3OfphZJr9TU-47" style="edgeStyle=none;curved=1;html=1;startSize=10;endFill=1;endSize=10;strokeWidth=2;fontSize=12;fillColor=#f8cecc;strokeColor=#b85450;exitX=1.133;exitY=0.367;exitDx=0;exitDy=0;exitPerimeter=0;entryX=0;entryY=1;entryDx=0;entryDy=0;" parent="1" source="BL0wC5FVQ3OfphZJr9TU-44" target="BL0wC5FVQ3OfphZJr9TU-2" edge="1">
          <mxGeometry relative="1" as="geometry">
            <mxPoint x="1020" y="460" as="sourcePoint" />
            <mxPoint x="1280" y="460" as="targetPoint" />
          </mxGeometry>
        </mxCell>
        <mxCell id="BL0wC5FVQ3OfphZJr9TU-48" value="12" style="text;html=1;resizable=0;points=[];align=center;verticalAlign=middle;labelBackgroundColor=#ffffff;fontSize=20;" parent="BL0wC5FVQ3OfphZJr9TU-47" connectable="0" vertex="1">
          <mxGeometry x="0.1545" relative="1" as="geometry">
            <mxPoint x="-15" y="-20" as="offset" />
          </mxGeometry>
        </mxCell>
        <mxCell id="BL0wC5FVQ3OfphZJr9TU-49" value="" style="group" parent="1" connectable="0" vertex="1">
          <mxGeometry x="1230" y="460" width="80" height="80" as="geometry" />
        </mxCell>
        <mxCell id="BL0wC5FVQ3OfphZJr9TU-50" value="" style="shape=lineEllipse;perimeter=ellipsePerimeter;whiteSpace=wrap;html=1;backgroundOutline=1;movable=1;resizable=1;rotatable=1;deletable=1;editable=1;locked=0;connectable=1;container=0;" parent="BL0wC5FVQ3OfphZJr9TU-49" vertex="1">
          <mxGeometry width="80" height="80" as="geometry" />
        </mxCell>
        <mxCell id="BL0wC5FVQ3OfphZJr9TU-51" value="" style="line;strokeWidth=2;direction=south;html=1;noLabel=0;movable=1;resizable=1;rotatable=1;deletable=1;editable=1;locked=0;connectable=1;container=0;" parent="BL0wC5FVQ3OfphZJr9TU-49" vertex="1">
          <mxGeometry x="35" width="10" height="40" as="geometry" />
        </mxCell>
        <mxCell id="BL0wC5FVQ3OfphZJr9TU-52" value="&lt;font style=&quot;font-size: 12px;&quot;&gt;39&lt;/font&gt;" style="text;html=1;align=center;verticalAlign=middle;resizable=1;points=[];autosize=1;strokeColor=none;fillColor=none;fontSize=8;movable=1;rotatable=1;deletable=1;editable=1;locked=0;connectable=1;container=0;" parent="BL0wC5FVQ3OfphZJr9TU-49" vertex="1">
          <mxGeometry x="35" y="10" width="40" height="30" as="geometry" />
        </mxCell>
        <mxCell id="BL0wC5FVQ3OfphZJr9TU-53" value="22" style="text;html=1;align=center;verticalAlign=middle;resizable=1;points=[];autosize=1;strokeColor=none;fillColor=none;labelBackgroundColor=none;fontStyle=1;fontSize=12;movable=1;rotatable=1;deletable=1;editable=1;locked=0;connectable=1;container=0;" parent="BL0wC5FVQ3OfphZJr9TU-49" vertex="1">
          <mxGeometry y="10" width="40" height="30" as="geometry" />
        </mxCell>
        <mxCell id="BL0wC5FVQ3OfphZJr9TU-54" style="edgeStyle=none;curved=1;html=1;startSize=10;endFill=1;endSize=10;strokeWidth=2;fontSize=12;fillColor=#f8cecc;strokeColor=#330000;exitX=1;exitY=1;exitDx=0;exitDy=0;entryX=0.25;entryY=0.067;entryDx=0;entryDy=0;entryPerimeter=0;" parent="1" source="BL0wC5FVQ3OfphZJr9TU-2" target="BL0wC5FVQ3OfphZJr9TU-53" edge="1">
          <mxGeometry relative="1" as="geometry">
            <mxPoint x="1182" y="473" as="sourcePoint" />
            <mxPoint x="1270" y="390" as="targetPoint" />
          </mxGeometry>
        </mxCell>
        <mxCell id="BL0wC5FVQ3OfphZJr9TU-55" value="4" style="text;html=1;resizable=0;points=[];align=center;verticalAlign=middle;labelBackgroundColor=#ffffff;fontSize=20;" parent="1" connectable="0" vertex="1">
          <mxGeometry x="1079.9975206770628" y="429.99513521427343" as="geometry">
            <mxPoint x="133" y="-15" as="offset" />
          </mxGeometry>
        </mxCell>
        <mxCell id="BL0wC5FVQ3OfphZJr9TU-56" value="" style="group" parent="1" connectable="0" vertex="1">
          <mxGeometry x="1270" y="220" width="80" height="80" as="geometry" />
        </mxCell>
        <mxCell id="BL0wC5FVQ3OfphZJr9TU-57" value="" style="shape=lineEllipse;perimeter=ellipsePerimeter;whiteSpace=wrap;html=1;backgroundOutline=1;movable=1;resizable=1;rotatable=1;deletable=1;editable=1;locked=0;connectable=1;container=0;" parent="BL0wC5FVQ3OfphZJr9TU-56" vertex="1">
          <mxGeometry width="80" height="80" as="geometry" />
        </mxCell>
        <mxCell id="BL0wC5FVQ3OfphZJr9TU-58" value="" style="line;strokeWidth=2;direction=south;html=1;noLabel=0;movable=1;resizable=1;rotatable=1;deletable=1;editable=1;locked=0;connectable=1;container=0;" parent="BL0wC5FVQ3OfphZJr9TU-56" vertex="1">
          <mxGeometry x="35" width="10" height="40" as="geometry" />
        </mxCell>
        <mxCell id="BL0wC5FVQ3OfphZJr9TU-59" value="&lt;font style=&quot;font-size: 12px;&quot;&gt;32&lt;/font&gt;" style="text;html=1;align=center;verticalAlign=middle;resizable=1;points=[];autosize=1;strokeColor=none;fillColor=none;fontSize=8;movable=1;rotatable=1;deletable=1;editable=1;locked=0;connectable=1;container=0;" parent="BL0wC5FVQ3OfphZJr9TU-56" vertex="1">
          <mxGeometry x="35" y="10" width="40" height="30" as="geometry" />
        </mxCell>
        <mxCell id="BL0wC5FVQ3OfphZJr9TU-60" value="32" style="text;html=1;align=center;verticalAlign=middle;resizable=1;points=[];autosize=1;strokeColor=none;fillColor=none;labelBackgroundColor=none;fontStyle=1;fontSize=12;movable=1;rotatable=1;deletable=1;editable=1;locked=0;connectable=1;container=0;" parent="BL0wC5FVQ3OfphZJr9TU-56" vertex="1">
          <mxGeometry y="10" width="40" height="30" as="geometry" />
        </mxCell>
        <mxCell id="BL0wC5FVQ3OfphZJr9TU-61" style="edgeStyle=none;curved=1;html=1;startSize=10;endFill=1;endSize=10;strokeWidth=2;fontSize=12;fillColor=#f8cecc;strokeColor=#b85450;exitX=0.963;exitY=0.375;exitDx=0;exitDy=0;entryX=0;entryY=1;entryDx=0;entryDy=0;exitPerimeter=0;" parent="1" source="BL0wC5FVQ3OfphZJr9TU-2" target="BL0wC5FVQ3OfphZJr9TU-57" edge="1">
          <mxGeometry relative="1" as="geometry">
            <mxPoint x="1180" y="300" as="sourcePoint" />
            <mxPoint x="1262" y="374" as="targetPoint" />
          </mxGeometry>
        </mxCell>
        <mxCell id="BL0wC5FVQ3OfphZJr9TU-62" value="10" style="text;html=1;resizable=0;points=[];align=center;verticalAlign=middle;labelBackgroundColor=#ffffff;fontSize=20;" parent="1" connectable="0" vertex="1">
          <mxGeometry x="1089.9975206770628" y="359.99513521427343" as="geometry">
            <mxPoint x="133" y="-15" as="offset" />
          </mxGeometry>
        </mxCell>
        <mxCell id="BL0wC5FVQ3OfphZJr9TU-63" value="F" style="text;html=1;strokeColor=none;fillColor=none;align=center;verticalAlign=middle;whiteSpace=wrap;rounded=0;shadow=1;labelBackgroundColor=none;fontSize=20;" parent="1" vertex="1">
          <mxGeometry x="1170.0036363636364" y="300" width="47.272727272727266" height="20" as="geometry" />
        </mxCell>
        <mxCell id="BL0wC5FVQ3OfphZJr9TU-64" style="edgeStyle=none;curved=1;html=1;startSize=10;endFill=1;endSize=10;strokeWidth=2;fontSize=12;fillColor=#f8cecc;strokeColor=#b85450;exitX=1;exitY=0.725;exitDx=0;exitDy=0;exitPerimeter=0;entryX=0.575;entryY=-0.133;entryDx=0;entryDy=0;entryPerimeter=0;" parent="1" source="BL0wC5FVQ3OfphZJr9TU-57" target="BL0wC5FVQ3OfphZJr9TU-24" edge="1">
          <mxGeometry relative="1" as="geometry">
            <mxPoint x="1330" y="340" as="sourcePoint" />
            <mxPoint x="1458" y="350.96000000000004" as="targetPoint" />
          </mxGeometry>
        </mxCell>
        <mxCell id="BL0wC5FVQ3OfphZJr9TU-65" value="" style="endArrow=none;dashed=1;html=1;rounded=0;strokeWidth=3;entryX=0.063;entryY=0.75;entryDx=0;entryDy=0;exitX=1;exitY=0.5;exitDx=0;exitDy=0;entryPerimeter=0;" parent="1" source="BL0wC5FVQ3OfphZJr9TU-50" target="BL0wC5FVQ3OfphZJr9TU-21" edge="1">
          <mxGeometry width="50" height="50" relative="1" as="geometry">
            <mxPoint x="1403" y="488" as="sourcePoint" />
            <mxPoint x="1360" y="596" as="targetPoint" />
          </mxGeometry>
        </mxCell>
        <mxCell id="BL0wC5FVQ3OfphZJr9TU-66" value="G" style="text;html=1;strokeColor=none;fillColor=none;align=center;verticalAlign=middle;whiteSpace=wrap;rounded=0;shadow=1;labelBackgroundColor=none;fontSize=20;" parent="1" vertex="1">
          <mxGeometry x="1350.0036363636364" y="330" width="47.272727272727266" height="20" as="geometry" />
        </mxCell>
        <mxCell id="BL0wC5FVQ3OfphZJr9TU-67" value="7" style="text;html=1;resizable=0;points=[];align=center;verticalAlign=middle;labelBackgroundColor=#ffffff;fontSize=20;" parent="1" connectable="0" vertex="1">
          <mxGeometry x="1279.9975206770628" y="329.99513521427343" as="geometry">
            <mxPoint x="133" y="-15" as="offset" />
          </mxGeometry>
        </mxCell>
      </root>
    </mxGraphModel>
  </diagram>
</mxfile>
